<svg width="160" height="72" viewBox="0 0 160 72" fill="none" xmlns="http://www.w3.org/2000/svg">
<path fill-rule="evenodd" clip-rule="evenodd" d="M21.3106 46.5884L21.306 41.8877L16.4974 41.8923L16.5019 46.5929C16.5021 46.7269 16.4759 46.8595 16.4247 46.9833C16.3735 47.1071 16.2984 47.2197 16.2036 47.3145C16.1089 47.4093 15.9963 47.4845 15.8724 47.5359C15.7485 47.5873 15.6156 47.6137 15.4814 47.6138L10.7705 47.6199L10.7751 52.4197L15.4845 52.4151C15.6187 52.4149 15.7517 52.4411 15.8758 52.4922C15.9999 52.5434 16.1126 52.6184 16.2076 52.7131C16.3026 52.8078 16.378 52.9202 16.4294 53.044C16.4808 53.1678 16.5073 53.3005 16.5073 53.4345L16.5119 58.1336L21.3205 58.129L21.3159 53.4299C21.3159 53.1593 21.4234 52.8998 21.6149 52.7083C21.8063 52.5167 22.0661 52.4088 22.3372 52.4082L27.0473 52.4037L27.0428 47.6039L22.3326 47.6085C22.1984 47.6085 22.0655 47.5821 21.9415 47.5309C21.8175 47.4796 21.7048 47.4044 21.6099 47.3097C21.515 47.215 21.4397 47.1025 21.3884 46.9788C21.337 46.855 21.3106 46.7223 21.3106 46.5884Z" fill="white"/>
<path fill-rule="evenodd" clip-rule="evenodd" d="M97.5496 32.224C98.8502 30.8634 99.5249 29.1619 99.5738 27.1196L99.5692 22.2985C99.5692 21.8338 99.3842 21.3881 99.055 21.0595C98.7258 20.7309 98.2793 20.5462 97.8137 20.5462H97.6381C97.206 20.5942 96.8075 20.8015 96.5207 21.1275C96.2292 21.4489 96.0663 21.8659 96.0627 22.2993L96.0673 27.1196C96.0424 28.1557 95.7116 29.0278 95.075 29.7358C94.7789 30.0768 94.4142 30.3517 94.0045 30.5426C93.5948 30.7335 93.1495 30.836 92.6974 30.8436C92.2394 30.8387 91.7874 30.7381 91.3708 30.548C90.9542 30.358 90.5821 30.0829 90.2786 29.7404C89.6344 29.0334 89.2993 28.1621 89.2734 27.1264L89.2688 22.5652L93.4721 22.5774L95.3223 22.6307L95.3307 22.1667C95.3298 21.8438 95.3926 21.5238 95.5154 21.2251C95.6289 20.9232 95.7947 20.6436 96.0055 20.3992L93.4782 20.4038C93.4782 20.4076 93.4737 20.4038 93.4737 20.4038L89.2696 20.4129L89.2619 13.1151V12.9398C89.2217 12.4988 89.0204 12.088 88.6963 11.7856C88.3726 11.4867 87.9478 11.3206 87.5068 11.3206C87.0658 11.3206 86.641 11.4867 86.3172 11.7856C85.9936 12.0885 85.7929 12.4996 85.7532 12.9406V13.1158L85.76 20.4182L67.7948 20.4563C63.648 20.4655 60.2735 18.3452 60.2689 14.2091C60.2689 14.0697 60.2689 13.8198 60.2689 13.8198C60.2689 13.8198 60.2689 13.563 60.2651 13.4236C60.2552 8.16372 55.9633 4.26985 50.6891 4.27442C45.4149 4.27899 41.0398 8.182 41.0451 13.4465C41.0451 13.5653 41.0451 13.7923 41.0451 13.7923C41.0451 13.7923 41.0451 14.0003 41.0497 14.1199L41.1451 20.6019L34.9168 20.608C34.6458 20.6084 34.386 20.7161 34.1946 20.9075C34.0031 21.0989 33.8955 21.3584 33.8955 21.6288L33.9024 28.3507L21.3221 28.3629C9.59821 28.3744 0.0725456 37.8991 0.0839947 49.6006C0.0954438 61.302 9.63866 70.8024 21.3587 70.791C27.9389 70.7849 33.994 67.8197 38.0561 62.6391L47.5513 62.6299C51.6233 67.7991 57.6845 70.7536 64.267 70.7475C75.9871 70.7361 85.512 61.209 85.5005 49.5122C85.4891 37.8153 75.942 28.3104 64.2227 28.321L50.4387 28.3347L50.4326 21.6136C50.432 21.343 50.3239 21.0838 50.132 20.8927C49.9401 20.7016 49.6801 20.5942 49.4091 20.5942L43.1815 20.6003L43.0854 14.1177C43.0854 13.9988 43.0854 13.7756 43.0854 13.7756C43.0854 13.7756 43.0854 13.563 43.0854 13.4449C43.0854 9.30575 46.5422 6.31925 50.686 6.31468C54.8299 6.31011 58.2073 9.29127 58.2112 13.4305C58.2112 13.5691 58.2112 13.8114 58.2112 13.8114C58.2112 13.8114 58.2112 14.0727 58.2112 14.2121C58.2165 19.4758 62.5084 22.4837 67.7826 22.5012L85.7539 22.5522L85.7585 27.1272C85.8094 29.171 86.489 30.8725 87.7972 32.2317C89.1055 33.5908 90.7381 34.2953 92.6951 34.3451C94.6318 34.2912 96.25 33.5837 97.5496 32.2225V32.224ZM29.2197 53.2727C29.22 53.4067 29.1938 53.5395 29.1427 53.6634C29.0916 53.7872 29.0164 53.8999 28.9217 53.9947C28.8269 54.0896 28.7143 54.1649 28.5903 54.2164C28.4664 54.2678 28.3335 54.2943 28.1992 54.2944L23.489 54.299L23.4936 58.9989C23.4938 59.2694 23.3865 59.5289 23.1951 59.7205C23.0038 59.912 22.7441 60.0199 22.4731 60.0205L15.6166 60.0274C15.4824 60.0275 15.3495 60.0012 15.2255 59.95C15.1014 59.8989 14.9887 59.8238 14.8937 59.7291C14.7988 59.6345 14.7234 59.5221 14.6719 59.3984C14.6205 59.2746 14.5939 59.142 14.5938 59.008L14.5862 54.3081L9.87604 54.3127C9.60491 54.3127 9.34488 54.2052 9.15309 54.0139C8.9613 53.8226 8.85346 53.5632 8.85325 53.2925L8.84639 46.4487C8.84618 46.3148 8.87245 46.182 8.92369 46.0582C8.97492 45.9343 9.05011 45.8218 9.14497 45.727C9.23982 45.6321 9.35247 45.5569 9.47647 45.5056C9.60048 45.4543 9.7334 45.4279 9.86765 45.4279L14.5771 45.4233V40.7218C14.5768 40.5879 14.6031 40.4553 14.6543 40.3315C14.7055 40.2077 14.7806 40.0951 14.8754 40.0003C14.9701 39.9055 15.0827 39.8303 15.2066 39.7789C15.3305 39.7275 15.4634 39.701 15.5975 39.7009L22.454 39.6949C22.5882 39.6947 22.7211 39.7208 22.8452 39.7719C22.9692 39.823 23.0819 39.898 23.1769 39.9926C23.2719 40.0872 23.3473 40.1996 23.3987 40.3232C23.4502 40.4469 23.4767 40.5795 23.4768 40.7135L23.4814 45.4149L28.1908 45.4103C28.3251 45.41 28.458 45.4362 28.5822 45.4872C28.7063 45.5382 28.8191 45.6132 28.9142 45.7078C29.0092 45.8024 29.0847 45.9148 29.1362 46.0386C29.1877 46.1623 29.2143 46.2949 29.2144 46.4289L29.2205 53.2727H29.2197ZM73.6003 44.0184C74.7191 44.0155 75.8101 44.3669 76.7161 45.0221C77.6222 45.6773 78.2966 46.6025 78.6424 47.6646C78.9883 48.7266 78.9876 49.8708 78.6406 50.9325C78.2937 51.9942 77.6182 52.9187 76.7114 53.5729L70.8487 59.3631C70.39 59.9318 69.8179 60.3992 69.1685 60.7355C68.5192 61.0718 67.807 61.2696 67.077 61.3165C66.347 61.3633 65.6152 61.2582 64.9281 61.0077C64.241 60.7572 63.6136 60.3668 63.0857 59.8614C62.5578 59.3559 62.141 58.7464 61.8616 58.0716C61.5823 57.3968 61.4466 56.6713 61.4632 55.9414C61.4798 55.2114 61.6482 54.4929 61.9578 53.8313C62.2674 53.1698 62.7115 52.5798 63.2617 52.0987C63.2617 52.0919 63.2724 52.0888 63.2762 52.0842L69.542 45.9497C70.0336 45.3481 70.6528 44.8628 71.355 44.5289C72.0571 44.1949 72.8248 44.0206 73.6026 44.0184H73.6003ZM52.6866 43.4653C52.6906 43.46 52.6955 43.4554 52.7011 43.4516L58.9599 37.3194C59.4373 36.7416 60.0324 36.2719 60.7058 35.9416C61.3792 35.6113 62.1153 35.428 62.8652 35.4039C63.6151 35.3797 64.3616 35.5153 65.0549 35.8016C65.7482 36.0878 66.3724 36.5182 66.8861 37.0641C67.3998 37.61 67.791 38.2588 68.0339 38.9674C68.2767 39.6759 68.3655 40.428 68.2944 41.1736C68.2234 41.9191 67.994 42.6409 67.6216 43.2911C67.2492 43.9412 66.7423 44.5047 66.1347 44.9441L60.2751 50.7274C59.8168 51.2971 59.2448 51.7655 58.5954 52.1027C57.946 52.4399 57.2335 52.6385 56.503 52.686C55.7725 52.7334 55.0402 52.6287 54.3525 52.3783C53.6648 52.128 53.0368 51.7376 52.5084 51.2319C51.9801 50.7262 51.5629 50.1163 51.2835 49.441C51.004 48.7657 50.8684 48.0397 50.8852 47.3093C50.902 46.5788 51.0709 45.8599 51.3812 45.1981C51.6914 44.5363 52.1363 43.9462 52.6873 43.4653H52.6866ZM40.4406 52.1307L37.128 55.4425C37.0341 55.5414 36.9214 55.6205 36.7965 55.6751C36.6715 55.7298 36.5368 55.7589 36.4004 55.7608C36.264 55.7627 36.1286 55.7374 36.0021 55.6862C35.8757 55.635 35.7608 55.5591 35.6642 55.4629C35.5677 55.3667 35.4914 55.2522 35.4398 55.1261C35.3883 55 35.3626 54.8649 35.3642 54.7287C35.3658 54.5926 35.3947 54.4581 35.4492 54.3332C35.5038 54.2084 35.5828 54.0957 35.6816 54.0018L38.9942 50.6893C39.1857 50.4973 39.4458 50.3892 39.7171 50.3886C39.9885 50.388 40.2491 50.4951 40.4414 50.6862C40.6337 50.8774 40.742 51.1369 40.7426 51.4078C40.7432 51.6787 40.6359 51.9388 40.4444 52.1307H40.4406ZM46.8689 52.088L43.5204 55.4402C43.4256 55.5353 43.3129 55.6107 43.1889 55.6623C43.0649 55.7139 42.9318 55.7406 42.7975 55.7409C42.6631 55.7412 42.53 55.7151 42.4057 55.664C42.2814 55.6129 42.1685 55.5379 42.0732 55.4433C41.978 55.3486 41.9024 55.2362 41.8507 55.1124C41.799 54.9886 41.7723 54.8558 41.772 54.7217C41.7717 54.5875 41.7979 54.4547 41.8491 54.3306C41.9002 54.2066 41.9754 54.0938 42.0702 53.9988L45.4225 50.6481C45.6138 50.4562 45.8737 50.3479 46.1449 50.3472C46.4162 50.3465 46.6766 50.4534 46.8689 50.6443C47.0612 50.8353 47.1697 51.0946 47.1704 51.3654C47.1711 51.6361 47.064 51.8961 46.8727 52.088H46.8689ZM48.3893 22.6353L48.3947 28.3363L35.9396 28.3485L35.9335 22.6475L48.3893 22.6353Z" fill="white"/>
<path fill-rule="evenodd" clip-rule="evenodd" d="M112.513 32.575C112.514 33.0397 112.699 33.4852 113.029 33.8134C113.358 34.1417 113.805 34.3258 114.271 34.3253C114.736 34.3248 115.183 34.1397 115.511 33.8107C115.84 33.4818 116.025 33.0359 116.024 32.5711L116.004 12.7422C115.767 12.9602 115.493 13.1345 115.195 13.2572C114.896 13.3801 114.576 13.4435 114.252 13.4439C113.918 13.4464 113.586 13.3835 113.276 13.2587C112.985 13.1412 112.721 12.9666 112.499 12.7452L112.506 20.1437L105.712 20.1498L105.705 12.7521C105.483 12.9741 105.218 13.1493 104.927 13.2671C104.3 13.515 103.602 13.515 102.975 13.2671C102.683 13.1499 102.419 12.9753 102.197 12.7536L102.216 32.5833C102.216 33.0481 102.402 33.4936 102.731 33.8218C103.061 34.1501 103.508 34.3342 103.973 34.3337C104.439 34.3332 104.885 34.1481 105.214 33.8191C105.543 33.4902 105.727 33.0443 105.727 32.5795L105.718 23.6505L112.515 23.6437L112.513 32.575Z" fill="white"/>
<path fill-rule="evenodd" clip-rule="evenodd" d="M103.944 12.7111C104.386 12.712 104.811 12.5453 105.133 12.2448C105.457 11.9419 105.657 11.5308 105.697 11.0898V10.9588C105.695 10.4644 105.783 9.97377 105.958 9.51123C106.133 9.05427 106.402 8.63899 106.747 8.29226C107.039 7.95473 107.402 7.6853 107.81 7.50297C108.207 7.32844 108.636 7.23865 109.069 7.23936C109.505 7.23831 109.936 7.32728 110.335 7.50068C110.753 7.68575 111.128 7.95349 111.439 8.28768C111.771 8.6422 112.034 9.05566 112.213 9.50666C112.398 9.96711 112.493 10.4583 112.495 10.9542V11.0852C112.505 11.3043 112.559 11.5191 112.653 11.7172C112.748 11.9153 112.88 12.0928 113.043 12.2395C113.374 12.539 113.804 12.7045 114.25 12.7034C114.692 12.7041 115.117 12.5375 115.439 12.2372C115.763 11.9346 115.963 11.5232 116.002 11.0822V10.9512C115.951 8.90733 115.272 7.20584 113.964 5.84668C112.656 4.48752 111.024 3.78407 109.066 3.73633C107.13 3.79017 105.512 4.49768 104.212 5.85887C102.912 7.22006 102.237 8.92155 102.189 10.9633V11.0944C102.229 11.5355 102.43 11.9464 102.755 12.2486C103.078 12.5481 103.503 12.7134 103.944 12.7111Z" fill="white"/>
<path fill-rule="evenodd" clip-rule="evenodd" d="M132.452 12.7705C132.223 12.9959 131.954 13.1767 131.658 13.3038C131.354 13.4412 131.024 13.5122 130.69 13.5122C130.357 13.5122 130.027 13.4412 129.723 13.3038C129.432 13.1752 129.168 12.9945 128.943 12.7705L128.962 32.5553C128.962 33.02 129.147 33.4657 129.476 33.7943C129.805 34.1229 130.252 34.3076 130.717 34.3076C131.183 34.3076 131.63 34.1229 131.959 33.7943C132.288 33.4657 132.473 33.02 132.473 32.5553L132.452 12.7705Z" fill="white"/>
<path fill-rule="evenodd" clip-rule="evenodd" d="M120.412 34.321C120.878 34.321 121.324 34.1364 121.653 33.8078C121.983 33.4792 122.168 33.0335 122.168 32.5687L122.148 12.7832C121.924 13.007 121.661 13.1878 121.371 13.3165C121.064 13.4542 120.731 13.5256 120.394 13.526C120.07 13.5237 119.749 13.4531 119.453 13.3188C119.155 13.1855 118.881 13.0054 118.64 12.7855L118.659 32.5703C118.66 33.0346 118.845 33.4796 119.174 33.808C119.503 34.1363 119.949 34.3213 120.414 34.3225L120.412 34.321Z" fill="white"/>
<path fill-rule="evenodd" clip-rule="evenodd" d="M128.941 11.1558C128.982 11.5965 129.184 12.0068 129.507 12.3093C129.831 12.6082 130.256 12.7742 130.697 12.7742C131.138 12.7742 131.563 12.6082 131.887 12.3093C132.21 12.0063 132.411 11.5953 132.451 11.1543V10.7596C132.428 9.90557 132.259 9.06174 131.949 8.26529C131.652 7.49941 131.227 6.78942 130.692 6.16561C130.061 5.42529 129.281 4.82591 128.402 4.40647C127.514 3.98211 126.541 3.76211 125.556 3.7627C123.599 3.81653 121.968 4.52405 120.663 5.88524C119.357 7.24643 118.681 8.94792 118.634 10.9897V11.1657C118.674 11.6065 118.876 12.0171 119.2 12.3192C119.524 12.6186 119.949 12.785 120.39 12.785C120.831 12.785 121.256 12.6186 121.579 12.3192C121.903 12.0161 122.103 11.6051 122.143 11.1642V10.9889C122.165 9.93402 122.499 9.05661 123.143 8.35672C123.447 8.01672 123.819 7.74397 124.235 7.55595C124.651 7.36794 125.102 7.26883 125.559 7.26497C126.01 7.26937 126.455 7.36837 126.865 7.55553C127.275 7.7427 127.641 8.01385 127.939 8.35138C128.58 9.05077 128.914 9.92768 128.94 10.9821L128.941 11.1558Z" fill="white"/>
<path fill-rule="evenodd" clip-rule="evenodd" d="M133.499 8.26252C133.801 7.93906 134.162 7.67674 134.563 7.48999C134.958 7.30756 135.388 7.21196 135.823 7.20963C136.261 7.21119 136.694 7.30599 137.092 7.48771C137.503 7.67646 137.876 7.93736 138.194 8.25795C138.526 8.61259 138.789 9.026 138.969 9.47692C139.101 9.80072 139.327 10.3653 139.251 10.9481C139.251 11.4128 139.436 11.8585 139.765 12.1871C140.094 12.5157 140.54 12.7004 141.006 12.7004C141.472 12.7004 141.918 12.5157 142.247 12.1871C142.577 11.8585 142.762 11.4128 142.762 10.9481V10.4422C142.71 8.39889 142.03 7.18296 140.723 5.82532C139.416 4.46769 137.784 3.7622 135.826 3.71192C134.955 3.71057 134.093 3.88067 133.289 4.21246C132.504 4.53718 131.789 5.00743 131.18 5.59829C132.033 6.58421 132.648 7.75164 132.98 9.01143C133.113 8.73602 133.288 8.48326 133.499 8.26252Z" fill="white"/>
<path fill-rule="evenodd" clip-rule="evenodd" d="M147.125 24.5772C147.46 24.5751 147.792 24.638 148.102 24.7623C148.393 24.8806 148.658 25.0551 148.881 25.2758L148.876 20.7679H152.296C152.762 20.7679 153.209 20.5832 153.538 20.2546C153.867 19.926 154.052 19.4803 154.052 19.0156C154.052 18.5508 153.867 18.1051 153.538 17.7765C153.209 17.4479 152.762 17.2633 152.296 17.2633H148.875V12.667C148.651 12.8906 148.388 13.0714 148.098 13.2003C147.791 13.3376 147.458 13.4089 147.121 13.4098C146.795 13.4098 146.472 13.341 146.173 13.2079C145.876 13.0742 145.602 12.8942 145.361 12.6746L145.374 25.2811C145.612 25.0634 145.886 24.8888 146.185 24.7653C146.483 24.6427 146.803 24.5788 147.125 24.5772Z" fill="white"/>
<path fill-rule="evenodd" clip-rule="evenodd" d="M152.311 34.286C153.874 34.2565 155.244 33.7755 156.422 32.843C157.599 31.9105 158.42 30.6968 158.885 29.2021C158.976 28.8595 159.049 28.5124 159.104 28.1621C159.16 27.7962 159.189 27.4268 159.19 27.0567C159.189 26.9128 159.171 26.7696 159.136 26.63C159.104 26.5071 159.063 26.3865 159.015 26.2689C158.864 25.9862 158.643 25.7472 158.372 25.5749C158.091 25.3996 157.767 25.3066 157.435 25.3066C157.104 25.3066 156.779 25.3996 156.498 25.5749C156.228 25.748 156.008 25.9875 155.857 26.2704C155.727 26.5122 155.667 26.7851 155.682 27.059C155.682 28.0495 155.307 29.0034 154.632 29.73C154.332 30.0542 153.971 30.3166 153.57 30.5026C153.175 30.6859 152.745 30.7816 152.309 30.7829C151.861 30.7839 151.419 30.6891 151.011 30.5049C150.607 30.3211 150.244 30.0593 149.943 29.7346C149.267 29.01 148.891 28.0578 148.888 27.0681C148.903 26.7941 148.842 26.5212 148.711 26.2796C148.561 25.9969 148.34 25.7579 148.069 25.5855C147.788 25.4103 147.464 25.3173 147.132 25.3173C146.801 25.3173 146.476 25.4103 146.195 25.5855C145.925 25.7589 145.705 25.9984 145.554 26.2811C145.506 26.3988 145.466 26.5194 145.433 26.6422C145.398 26.7821 145.38 26.9255 145.379 27.0696C145.43 29.1129 146.11 30.8144 147.418 32.1741C148.727 33.5338 150.358 34.2377 152.311 34.286Z" fill="white"/>
<path fill-rule="evenodd" clip-rule="evenodd" d="M147.115 12.6684C147.346 12.6685 147.574 12.6224 147.787 12.5329C148 12.4434 148.192 12.3123 148.354 12.1473C148.684 11.8131 148.856 11.3883 148.867 10.8727V10.6967C148.951 9.68804 149.308 8.85 149.936 8.1826C150.564 7.51521 151.348 7.16958 152.286 7.14571C152.737 7.15029 153.182 7.24936 153.592 7.43651C154.002 7.62367 154.368 7.89472 154.667 8.23213C155.307 8.93151 155.641 9.80867 155.667 10.8636C155.665 11.3397 155.85 11.7976 156.183 12.1382C156.345 12.3027 156.538 12.4334 156.75 12.5226C156.963 12.6119 157.191 12.6578 157.422 12.6578C157.653 12.6578 157.881 12.6119 158.094 12.5226C158.307 12.4334 158.5 12.3027 158.661 12.1382C158.994 11.7975 159.179 11.3395 159.175 10.8636C159.125 8.81927 158.447 7.11778 157.143 5.75912C155.839 4.40047 154.218 3.69626 152.281 3.64648C150.324 3.69981 148.693 4.40708 147.388 5.76827C146.083 7.12946 145.407 8.83095 145.359 10.8727V11.1775C145.43 11.5916 145.645 11.9676 145.966 12.2394C146.287 12.5112 146.694 12.6615 147.115 12.6639V12.6684Z" fill="white"/>
<path fill-rule="evenodd" clip-rule="evenodd" d="M141.102 13.5068C140.766 13.5069 140.433 13.4363 140.126 13.2996C139.836 13.1709 139.572 12.9902 139.347 12.7663L139.366 32.5511C139.367 33.0158 139.552 33.4613 139.882 33.7895C140.211 34.1178 140.658 34.3019 141.124 34.3014C141.589 34.3009 142.036 34.1158 142.364 33.7868C142.693 33.4579 142.878 33.012 142.877 32.5472L142.858 12.7617C142.63 12.9889 142.36 13.1711 142.064 13.2988C141.761 13.4333 141.434 13.5041 141.102 13.5068Z" fill="white"/>
<path fill-rule="evenodd" clip-rule="evenodd" d="M91.579 50.2788C91.2447 50.2811 90.9131 50.2185 90.6028 50.0945C90.3117 49.9764 90.0471 49.8019 89.8242 49.581L89.8433 69.4541C89.8438 69.9188 90.0293 70.3643 90.3588 70.6926C90.6884 71.0208 91.1351 71.205 91.6007 71.2045C92.0663 71.204 92.5127 71.0189 92.8415 70.6899C93.1704 70.3609 93.3549 69.915 93.3544 69.4503L93.3353 49.5771C93.1129 49.7989 92.8485 49.9743 92.5575 50.0929C92.2466 50.2178 91.9142 50.281 91.579 50.2788Z" fill="white"/>
<path fill-rule="evenodd" clip-rule="evenodd" d="M101.885 50.27C101.55 50.2722 101.219 50.2096 100.908 50.0857C100.617 49.968 100.352 49.7934 100.13 49.5722L100.149 69.4453C100.149 69.91 100.335 70.3555 100.665 70.6838C100.994 71.0121 101.441 71.1962 101.906 71.1957C102.372 71.1952 102.818 71.0101 103.147 70.6811C103.476 70.3521 103.661 69.9062 103.66 69.4415L103.641 49.5684C103.403 49.7863 103.128 49.9606 102.83 50.0834C102.53 50.2069 102.209 50.2703 101.885 50.27Z" fill="white"/>
<path fill-rule="evenodd" clip-rule="evenodd" d="M96.7006 40.5557C95.8068 40.5577 94.9231 40.7448 94.1054 41.105C93.3081 41.458 92.5834 41.9558 91.9683 42.5731C91.9262 42.5967 91.8891 42.6283 91.8591 42.666C91.8278 42.7064 91.7912 42.7483 91.7492 42.7925L91.6622 42.8801C91.6183 42.912 91.5872 42.9585 91.5744 43.0111C91.4888 43.0878 91.415 43.1766 91.3554 43.2747C91.3309 43.2968 91.3027 43.3288 91.2668 43.3677C91.2335 43.4064 91.2043 43.4486 91.1798 43.4934C91.1667 43.5464 91.1357 43.5932 91.092 43.626C91.0391 43.6927 90.995 43.7659 90.9607 43.8439C90.9174 43.8761 90.8866 43.9224 90.8737 43.9749C90.8592 43.9882 90.8461 44.003 90.8348 44.0191C90.8296 44.0332 90.8278 44.0483 90.8295 44.0633L90.7424 44.1943C90.451 44.731 90.225 45.3006 90.0692 45.891C89.9067 46.5092 89.8243 47.1458 89.8242 47.785C89.8242 48.2497 90.0092 48.6954 90.3384 49.024C90.6676 49.3526 91.1142 49.5372 91.5797 49.5372C92.0453 49.5372 92.4919 49.3526 92.8211 49.024C93.1503 48.6954 93.3353 48.2497 93.3353 47.785C93.332 47.2949 93.4208 46.8086 93.5971 46.3511C93.7776 45.892 94.045 45.4719 94.3848 45.1139C94.6857 44.7901 95.0468 44.5277 95.448 44.3413C95.8431 44.1582 96.2733 44.0628 96.709 44.0617C97.1461 44.0626 97.5779 44.1572 97.9752 44.3391C98.384 44.5271 98.7557 44.7867 99.0728 45.1055C99.3982 45.4707 99.6589 45.8886 99.8437 46.3412C100.029 46.7967 100.124 47.2835 100.125 47.7751V47.9061C100.144 48.3462 100.336 48.7611 100.659 49.0611C100.983 49.3605 101.389 49.5182 101.88 49.5235C102.321 49.5252 102.746 49.3587 103.069 49.058C103.392 48.7553 103.593 48.3441 103.633 47.903V47.772C103.582 45.7287 102.902 44.0272 101.594 42.6675C100.286 41.3079 98.6545 40.6039 96.7006 40.5557Z" fill="white"/>
<path fill-rule="evenodd" clip-rule="evenodd" d="M108.016 40.5448C107.55 40.5448 107.104 40.7294 106.774 41.0581C106.445 41.3867 106.26 41.8324 106.26 42.2971L106.266 48.2053C106.493 47.982 106.763 47.8069 107.06 47.6903C107.365 47.568 107.691 47.5047 108.02 47.5037C108.354 47.5013 108.685 47.5642 108.995 47.6888C109.286 47.8062 109.551 47.9809 109.774 48.2023L109.767 42.2933C109.767 41.8286 109.583 41.3829 109.253 41.0542C108.924 40.7256 108.478 40.541 108.012 40.541L108.016 40.5448Z" fill="white"/>
<path fill-rule="evenodd" clip-rule="evenodd" d="M108.021 48.2481C107.585 48.2473 107.164 48.4081 106.839 48.6995C106.515 48.9908 106.311 49.392 106.266 49.8252L106.285 69.4362C106.285 69.901 106.47 70.3467 106.799 70.6753C107.128 71.0039 107.575 71.1885 108.04 71.1885C108.506 71.1885 108.952 71.0039 109.282 70.6753C109.611 70.3467 109.796 69.901 109.796 69.4362L109.777 49.8252C109.739 49.39 109.537 48.9855 109.211 48.6938C108.884 48.4031 108.459 48.2443 108.021 48.2481Z" fill="white"/>
<path fill-rule="evenodd" clip-rule="evenodd" d="M124.504 56.5946H124.329C123.898 56.6431 123.499 56.85 123.212 57.1752C122.921 57.4966 122.758 57.9135 122.754 58.3469L122.759 63.9504C122.735 64.9865 122.404 65.8586 121.767 66.5666C121.47 66.9081 121.105 67.1833 120.694 67.3741C120.284 67.565 119.838 67.6673 119.385 67.6744C118.927 67.6695 118.475 67.5688 118.059 67.3788C117.643 67.1888 117.271 66.9136 116.968 66.5712C116.322 65.8642 115.986 64.9929 115.961 63.9572L115.95 49.9489V49.7744C115.91 49.3335 115.709 48.9227 115.385 48.6202C115.061 48.3219 114.636 48.1562 114.195 48.1562C113.754 48.1562 113.33 48.3219 113.005 48.6202C112.682 48.9232 112.481 49.3342 112.441 49.7752V49.9497L112.455 63.958C112.506 66.0018 113.186 67.7033 114.494 69.0625C115.802 70.4216 117.432 71.1264 119.385 71.1766C121.322 71.1218 122.94 70.414 124.24 69.0533C125.54 67.6926 126.214 65.9912 126.264 63.9489L126.258 58.3446C126.258 57.8799 126.073 57.4342 125.744 57.1056C125.415 56.7769 124.968 56.5923 124.503 56.5923L124.504 56.5946Z" fill="white"/>
<path fill-rule="evenodd" clip-rule="evenodd" d="M122.009 60.0968V58.3445C122.009 58.0221 122.072 57.7028 122.194 57.4044C122.317 57.1062 122.491 56.8318 122.709 56.5938H120.472C120.007 56.5938 119.56 56.7784 119.231 57.107C118.902 57.4356 118.717 57.8813 118.717 58.346C118.73 58.8595 118.902 59.2773 119.233 59.5993C119.565 59.9208 120.01 60.099 120.472 60.0953L122.009 60.0968Z" fill="white"/>
<path fill-rule="evenodd" clip-rule="evenodd" d="M139.191 52.3345C138.677 52.0451 138.13 51.8197 137.562 51.6633C136.978 51.5019 136.375 51.4194 135.77 51.418C135.171 51.4195 134.575 51.5033 133.999 51.6671C133.44 51.8266 132.901 52.0528 132.396 52.3406C131.399 52.945 130.566 53.7832 129.967 54.7823C129.341 55.8238 128.972 56.9989 128.891 58.2107V58.8674C128.954 59.292 129.166 59.6805 129.49 59.963C129.743 60.1842 130.055 60.3278 130.389 60.3768C130.722 60.4258 131.062 60.3781 131.369 60.2393C131.676 60.1005 131.936 59.8765 132.119 59.5941C132.302 59.3117 132.399 58.9827 132.4 58.6465V58.3418C132.443 57.9061 132.553 57.4797 132.727 57.0778C132.904 56.6731 133.148 56.3012 133.449 55.9777C133.75 55.6539 134.111 55.3915 134.513 55.2052C134.908 55.0221 135.338 54.9265 135.774 54.9248C136.211 54.9259 136.643 55.0208 137.04 55.2029C137.451 55.3912 137.824 55.6522 138.142 55.9731C138.448 56.3026 138.694 56.6839 138.866 57.0992C139.043 57.5215 139.154 57.9683 139.197 58.424V58.6419C139.186 58.872 139.22 59.1021 139.297 59.3191C139.375 59.536 139.495 59.7355 139.65 59.9062C139.805 60.0769 139.992 60.2155 140.201 60.314C140.41 60.4125 140.636 60.469 140.866 60.4803C141.097 60.4916 141.327 60.4575 141.545 60.3799C141.762 60.3022 141.962 60.1827 142.133 60.0279C142.304 59.8732 142.443 59.6864 142.541 59.4781C142.64 59.2699 142.697 59.0442 142.708 58.8141V58.3319C142.626 57.0301 142.27 55.8619 141.639 54.8273C141.033 53.8142 140.193 52.9598 139.191 52.3345Z" fill="white"/>
<path fill-rule="evenodd" clip-rule="evenodd" d="M130.628 40.565C130.162 40.565 129.715 40.7496 129.386 41.0782C129.057 41.4068 128.872 41.8525 128.872 42.3173L128.884 55.1866C129.253 54.4028 129.745 53.6827 130.341 53.0534C130.931 52.4269 131.624 51.9048 132.389 51.5091L132.381 42.3158C132.38 41.8514 132.194 41.4064 131.865 41.078C131.536 40.7497 131.091 40.5647 130.625 40.5635L130.628 40.565Z" fill="white"/>
<path fill-rule="evenodd" clip-rule="evenodd" d="M130.65 61.1418C130.326 61.1417 130.006 61.0786 129.706 60.9559C129.407 60.8342 129.133 60.6604 128.895 60.4424L128.903 69.4163C128.903 69.8811 129.088 70.3268 129.418 70.6554C129.747 70.984 130.193 71.1686 130.659 71.1686C131.125 71.1686 131.571 70.984 131.9 70.6554C132.23 70.3268 132.414 69.8811 132.414 69.4163L132.405 60.4424C132.183 60.664 131.919 60.8391 131.628 60.9574C131.317 61.0817 130.985 61.1443 130.65 61.1418Z" fill="white"/>
<path fill-rule="evenodd" clip-rule="evenodd" d="M140.936 40.555C140.421 40.5698 140.003 40.7417 139.68 41.0708C139.358 41.4022 139.179 41.847 139.183 42.3088L139.192 51.5014C139.948 51.903 140.636 52.4231 141.227 53.0419C141.831 53.6696 142.329 54.3898 142.704 55.1751L142.691 42.305C142.691 41.8403 142.506 41.3946 142.177 41.066C141.848 40.7374 141.401 40.5527 140.936 40.5527V40.555Z" fill="white"/>
<path fill-rule="evenodd" clip-rule="evenodd" d="M140.953 61.1292C140.619 61.1313 140.287 61.0681 139.977 60.9433C139.685 60.8261 139.421 60.6515 139.198 60.4298L139.207 69.4038C139.204 69.8656 139.383 70.31 139.707 70.6403C140.03 70.9704 140.448 71.1413 140.963 71.153C141.428 71.1518 141.874 70.9668 142.203 70.6384C142.532 70.3101 142.717 69.8651 142.718 69.4007L142.709 60.4268C142.471 60.6443 142.197 60.8186 141.899 60.9418C141.599 61.0651 141.277 61.1287 140.953 61.1292Z" fill="white"/>
<path fill-rule="evenodd" clip-rule="evenodd" d="M158.75 41.0106C158.588 40.8476 158.395 40.7183 158.182 40.6302C157.969 40.5421 157.741 40.4968 157.511 40.4971L146.415 40.5077C145.95 40.5077 145.503 40.6924 145.174 41.021C144.845 41.3496 144.66 41.7953 144.66 42.26C144.66 42.7248 144.845 43.1704 145.174 43.4991C145.503 43.8277 145.95 44.0123 146.415 44.0123H150.319L150.323 48.1698C150.545 47.948 150.81 47.7729 151.101 47.6548C151.411 47.5303 151.742 47.4669 152.076 47.4681C152.399 47.4682 152.72 47.5311 153.019 47.6532C153.318 47.7756 153.593 47.9494 153.831 48.1667V44.0085H157.515C157.861 44.0069 158.199 43.9031 158.486 43.7103C158.774 43.5175 158.997 43.2441 159.129 42.9247C159.261 42.6053 159.296 42.254 159.229 41.915C159.161 41.5761 158.995 41.2646 158.75 41.0197V41.0106Z" fill="white"/>
<path fill-rule="evenodd" clip-rule="evenodd" d="M152.081 48.2062C151.646 48.2063 151.225 48.3676 150.902 48.6588C150.578 48.9501 150.375 49.3507 150.33 49.7832V49.9592L150.349 69.3943C150.349 69.859 150.534 70.3047 150.863 70.6333C151.192 70.9619 151.639 71.1466 152.104 71.1466C152.57 71.1466 153.016 70.9619 153.346 70.6333C153.675 70.3047 153.86 69.859 153.86 69.3943L153.841 49.9584V49.7832C153.803 49.3481 153.601 48.9437 153.275 48.6518C152.947 48.3603 152.521 48.2014 152.081 48.2062Z" fill="white"/>
<path fill-rule="evenodd" clip-rule="evenodd" d="M56.1849 50.6548C56.6739 50.6523 57.1559 50.5391 57.5947 50.3237C58.0335 50.1083 58.4177 49.7964 58.7182 49.4114C58.7423 49.3781 58.7697 49.3472 58.7999 49.3192L64.7015 43.4933C64.7555 43.4323 64.817 43.3785 64.8847 43.3333C65.269 43.0698 65.5918 42.7267 65.8311 42.3273C66.0705 41.928 66.2207 41.4818 66.2716 41.0192C66.3224 40.5567 66.2727 40.0886 66.1258 39.6469C65.979 39.2053 65.7384 38.8005 65.4205 38.4601C65.1026 38.1197 64.7149 37.8517 64.2838 37.6745C63.8528 37.4973 63.3884 37.415 62.9226 37.4331C62.4567 37.4513 62.0003 37.5696 61.5844 37.7799C61.1685 37.9902 60.803 38.2875 60.5127 38.6516C60.4901 38.6827 60.4645 38.7115 60.4364 38.7377L54.1928 44.8524C54.1599 44.8901 54.1241 44.9253 54.0859 44.9576C53.5771 45.3846 53.2126 45.9578 53.0419 46.5992C52.8713 47.2405 52.9028 47.9187 53.1323 48.5414C53.3617 49.1642 53.7779 49.7013 54.3242 50.0794C54.8704 50.4576 55.5202 50.6585 56.1849 50.6548ZM57.5348 44.3047L57.8187 45.8109L59.3422 46.0067L57.9943 46.7419L58.2782 48.2481L57.1615 47.196L55.8136 47.9312L56.4708 46.5461L55.3541 45.494L56.8776 45.6898L57.5348 44.3047ZM62.9402 40.9949L62.6563 39.4887L61.9983 40.8737L60.4756 40.6779L61.5923 41.7301L60.9351 43.1159L62.2823 42.3807L63.3989 43.4328L63.115 41.9259L64.4629 41.1914L62.9402 40.9949Z" fill="white"/>
<path fill-rule="evenodd" clip-rule="evenodd" d="M102.142 3.18591C102.918 3.18591 103.546 2.55864 103.546 1.78485C103.546 1.01107 102.918 0.383789 102.142 0.383789C101.488 0.383789 100.938 0.830574 100.783 1.43515C100.779 1.4346 100.778 1.43433 100.778 1.43433C100.778 1.43433 97.4969 1.45545 95.7117 4.44965C94.8024 3.9818 93.7874 3.73347 92.6664 3.70465C91.5142 3.73635 90.4749 3.99455 89.5487 4.47926C88.2063 2.20043 86.0002 1.62699 84.9948 1.48276C84.8563 0.854273 84.2951 0.383974 83.6239 0.383974C82.8487 0.383974 82.2202 1.01125 82.2202 1.78504C82.2202 2.55882 82.8487 3.1861 83.6239 3.1861C84.1806 3.1861 84.6616 2.86258 84.8886 2.3936C87.4128 2.90139 88.4661 4.83353 88.5952 5.08855C88.3081 5.30839 88.0341 5.55435 87.7731 5.82644C86.4679 7.18712 85.7914 8.88861 85.7435 10.9309V11.324C85.9843 11.1045 86.2584 10.9245 86.5557 10.7907C86.8505 10.6563 87.1704 10.5852 87.4945 10.582C87.8309 10.5818 88.1635 10.6524 88.4707 10.7892C88.7608 10.9178 89.0247 11.0986 89.2492 11.3225V10.9286C89.2483 10.4373 89.3427 9.95038 89.5271 9.4948C89.7125 9.04218 89.974 8.62451 90.3003 8.25982C90.6062 7.93221 90.975 7.66948 91.3849 7.48729C91.7877 7.30466 92.2247 7.20912 92.6672 7.20693C93.103 7.20743 93.5334 7.3023 93.9289 7.48501C94.3324 7.66906 94.6955 7.93081 94.9975 8.25525C95.3236 8.62065 95.5856 9.03844 95.7722 9.49099C95.9565 9.94666 96.0513 10.4334 96.0515 10.9248C96.0645 11.4375 96.2378 11.855 96.5683 12.1765C96.9014 12.4961 97.3455 12.6745 97.8075 12.6745C98.2695 12.6745 98.7135 12.4961 99.0466 12.1765C99.3769 11.8545 99.5484 11.4368 99.5611 10.9233C99.5102 8.87997 98.8324 7.17848 97.5277 5.81882C97.2552 5.53477 96.9688 5.2793 96.6687 5.05242C96.8718 4.66839 98.0503 2.67431 100.779 2.32418C100.801 2.32141 100.822 2.31864 100.843 2.31586C101.053 2.82635 101.555 3.18591 102.142 3.18591Z" fill="white"/>
<path fill-rule="evenodd" clip-rule="evenodd" d="M110.26 40.0541C110.815 40.0541 111.296 39.7317 111.523 39.264C114.049 39.7722 115.102 41.707 115.23 41.9596C114.963 42.1686 114.707 42.4006 114.462 42.6555C113.157 44.0157 112.481 45.7172 112.433 47.76V48.1539C112.674 47.9343 112.948 47.7543 113.245 47.6206C113.541 47.4862 113.862 47.4151 114.187 47.4118C114.523 47.4119 114.856 47.4825 115.164 47.6191C115.454 47.7475 115.717 47.9283 115.941 48.1524V47.7577C115.942 47.2664 116.036 46.7797 116.22 46.3239C116.405 45.8708 116.666 45.4524 116.992 45.0866C117.299 44.7602 117.668 44.4976 118.077 44.3141C118.48 44.1326 118.916 44.0374 119.358 44.0345C119.794 44.0357 120.224 44.1302 120.62 44.3118C121.021 44.4976 121.383 44.7592 121.684 45.0821C122.011 45.4472 122.272 45.8651 122.458 46.3178C122.643 46.7734 122.738 47.2601 122.739 47.7516C122.753 48.2651 122.925 48.6826 123.256 49.0041C123.589 49.3237 124.033 49.5021 124.495 49.5021C124.957 49.5021 125.401 49.3237 125.734 49.0041C126.063 48.6819 126.236 48.2644 126.248 47.7501C126.197 45.7068 125.519 44.0053 124.214 42.6456C123.936 42.355 123.642 42.0943 123.335 41.8635C123.611 41.3677 124.803 39.5294 127.413 39.1946C127.435 39.1918 127.457 39.1889 127.478 39.1861C127.688 39.6955 128.19 40.0541 128.776 40.0541C129.552 40.0541 130.18 39.4268 130.18 38.653C130.18 37.8792 129.552 37.252 128.776 37.252C128.121 37.252 127.571 37.7001 127.416 38.306C127.414 38.3057 127.413 38.3055 127.413 38.3055C127.413 38.3055 124.171 38.3256 122.379 41.2669C121.475 40.8059 120.467 40.5615 119.355 40.5338C118.178 40.5664 117.118 40.8353 116.177 41.3404C114.835 39.0708 112.636 38.4984 111.631 38.3541C111.494 37.7239 110.932 37.252 110.26 37.252C109.484 37.252 108.856 37.8792 108.856 38.653C108.856 39.4268 109.484 40.0541 110.26 40.0541Z" fill="white"/>
<path fill-rule="evenodd" clip-rule="evenodd" d="M66.7558 59.2807C67.2444 59.2782 67.7261 59.1651 68.1646 58.95C68.6031 58.7349 68.9871 58.4234 69.2876 58.0389C69.3059 58.0148 69.326 57.9933 69.3459 57.9721L69.3459 57.9721C69.3543 57.9631 69.3627 57.9542 69.3708 57.9452L75.2664 52.1246C75.3222 52.0631 75.3847 52.0079 75.4526 51.96C75.8375 51.6971 76.161 51.3543 76.401 50.9551C76.641 50.556 76.7918 50.1098 76.8432 49.6471C76.8946 49.1844 76.8454 48.7161 76.6989 48.2741C76.5523 47.8322 76.3119 47.427 75.9941 47.0863C75.6763 46.7455 75.2886 46.4773 74.8574 46.2999C74.4262 46.1224 73.9617 46.04 73.4957 46.0581C73.0296 46.0763 72.573 46.1947 72.157 46.4051C71.741 46.6156 71.3754 46.9132 71.0851 47.2776C71.0615 47.3081 71.036 47.3371 71.0088 47.3645L64.7637 53.4792C64.7311 53.5166 64.6959 53.5518 64.6584 53.5843C64.1487 54.0107 63.7832 54.5838 63.6119 55.2252C63.4406 55.8667 63.4718 56.5453 63.7013 57.1683C63.9307 57.7914 64.3472 58.3287 64.8939 58.7067C65.4405 59.0848 66.0908 59.2852 66.7558 59.2807ZM73.0399 48.6215C73.3306 48.6214 73.6148 48.7072 73.8566 48.8683C74.0471 48.9952 74.2045 49.1642 74.3172 49.3612L74.754 49.2675C74.9906 49.2168 75.2235 49.367 75.2744 49.6032C75.3252 49.8393 75.1747 50.0718 74.9381 50.1226L74.5052 50.2155C74.5006 50.2684 74.4931 50.3213 74.4827 50.3738C74.4263 50.6585 74.2865 50.92 74.0812 51.1254C73.8759 51.3307 73.6142 51.4707 73.3291 51.5277C73.0441 51.5846 72.7485 51.5559 72.4798 51.4452C72.2111 51.3346 71.9813 51.1468 71.8195 50.9058C71.7974 50.873 71.7767 50.8393 71.7575 50.8049L71.3338 50.8958C71.0972 50.9466 70.8643 50.7963 70.8134 50.5602C70.7626 50.3241 70.9131 50.0915 71.1497 50.0407L71.5774 49.949C71.6101 49.6118 71.7588 49.2946 72.0005 49.0528C72.276 48.7773 72.6499 48.6221 73.0399 48.6215ZM67.7618 53.6727C68.0531 53.6719 68.3381 53.7575 68.5806 53.9185C68.7727 54.046 68.9313 54.2163 69.0446 54.4149L69.478 54.3219C69.7146 54.2712 69.9476 54.4214 69.9984 54.6576C70.0493 54.8937 69.8987 55.1262 69.6621 55.177L69.2317 55.2693C69.2271 55.3219 69.2196 55.3743 69.2093 55.4263C69.1529 55.7115 69.0128 55.9736 68.807 56.1794C68.6012 56.3851 68.3389 56.5253 68.0532 56.5821C67.7676 56.6389 67.4714 56.6098 67.2023 56.4985C66.9332 56.3872 66.7033 56.1987 66.5416 55.9569C66.5203 55.9251 66.5004 55.8925 66.4817 55.8593L66.0578 55.9502C65.8213 56.001 65.5883 55.8507 65.5374 55.6146C65.4866 55.3785 65.6371 55.1459 65.8737 55.0951L66.3007 55.0035C66.333 54.6651 66.4821 54.3467 66.7247 54.1041C66.9997 53.8292 67.3726 53.6741 67.7618 53.6727Z" fill="white"/>
</svg>
