<svg width="755" height="125" viewBox="0 0 755 125" fill="none" xmlns="http://www.w3.org/2000/svg">
<path d="M31.9312 120.493C23.3553 120.493 16.4005 117.217 11.0667 110.664C7.51084 105.59 5.73292 99.5655 5.73292 92.5896C5.73292 90.687 5.8375 88.7845 6.04667 86.882C6.25584 84.9795 6.41271 83.077 6.5173 81.1744C6.62188 79.2719 6.67417 77.3694 6.67417 75.4669C6.67417 67.9625 5.8375 60.141 4.16416 52.0024L1.18352 37.2579C0.869766 35.6724 0.712891 34.087 0.712891 32.5016C0.712891 24.8915 4.05958 18.4969 10.7529 13.3178C14.7271 10.2526 19.3288 7.87448 24.558 6.18335C29.7872 4.38652 34.7027 3.48812 39.3044 3.48812C43.6969 3.48812 47.2527 4.28083 49.9719 5.86626C52.7957 7.4517 55.1488 9.56562 57.0313 12.208C59.0184 14.8504 60.9009 18.1798 62.6789 22.1963C64.5614 26.107 66.0778 30.1234 67.2283 34.2456C68.3787 38.3677 46.0313 44.868 43.0694 34.2456C40.1075 23.6231 41.3437 29.4364 39.4612 27.7453C37.6833 25.9484 35.5393 25.05 33.0293 25.05C30.5193 25.05 28.4276 25.9484 26.7543 27.7453C25.3947 29.0136 24.7149 30.7048 24.7149 32.8187C25.0286 35.3554 25.7607 39.3718 26.9112 44.868C29.6303 56.8116 30.9899 67.0112 30.9899 75.4669C30.9899 80.3289 30.6239 85.0852 29.8918 89.7358L29.7349 91.0041C29.7349 93.2237 30.4147 95.1263 31.7743 96.7117C33.2385 98.1914 35.121 98.9313 37.4218 98.9313C40.0364 98.9313 42.3373 98.0857 44.3244 96.3946C46.4161 94.5978 47.6711 92.3782 48.0894 89.7358C48.9261 85.2966 49.3444 80.4874 49.3444 75.3083C49.3444 70.1292 49.8859 72.6343 49.1875 71.1862C47.6307 67.9581 42.5537 73.7727 40.0887 71.1862C37.9146 68.9049 40.1933 68.0682 39.4612 63.1005C38.7291 58.1328 37.9448 53.6407 37.1081 49.6243C36.2714 45.6078 70.5226 49.6243 70.5226 49.6243L71.9345 57.0758C73.085 63.629 73.6602 69.6536 73.6602 75.1498C73.6602 82.5485 72.8235 89.9472 71.1502 97.3459L69.7383 104.797C68.797 109.237 68.1172 113.464 67.6989 117.481C67.2805 121.497 57.6065 122.237 57.1882 117.481C56.7699 112.725 56.5607 107.176 56.5607 107.176C56.5607 107.176 50.4948 114.046 46.2069 116.688C42.0235 119.225 37.265 120.493 31.9312 120.493Z" fill="#90FF00"/>
<path d="M152.237 117.481C151.847 127.786 133.461 125.275 127.921 117.481C124.338 112.44 126.823 101.627 126.823 101.627H108.625C106.01 109.765 104.389 115.05 103.762 117.481C103.134 119.912 83.9487 126.77 81.563 117.481C80.1506 111.982 84.4662 103.846 84.4662 103.846C87.4991 96.2361 90.5321 86.9349 93.565 75.9425C95.1338 70.0235 96.2842 63.9989 97.0163 57.8685C97.5392 54.0635 98.219 47.9331 99.0557 39.4775C99.7878 27.0054 102.612 16.0131 107.527 6.50044C112.442 -3.01218 125.725 3.32956 125.725 6.50044C125.725 9.67131 126.091 13.7406 126.823 18.7083C127.869 24.5216 131.163 34.1927 136.706 47.7218C139.111 53.6407 141.308 59.7711 143.295 66.1128C146.851 77.2108 149.361 90.4756 150.825 105.907C151.243 110.029 152.626 107.176 152.237 117.481ZM124.783 80.0646C124.919 78.9432 124.313 77.2108 124.313 77.2108C123.267 70.6577 118.351 54.0635 118.351 54.0635C118.351 54.0635 116.626 71.2919 114.743 80.0646C112.861 88.8374 124.307 83.9978 124.783 80.0646Z" fill="#90FF00"/>
<path d="M251.991 117.481C251.364 121.709 228.629 127.029 227.675 117.481C227.406 114.787 228.93 110.664 228.93 110.664C229.349 108.338 229.924 105.802 230.656 103.053C231.388 100.2 232.12 97.2402 232.852 94.175C234.421 87.5162 235.206 80.6988 235.206 73.7229C235.206 66.747 234.526 60.5638 233.166 55.1733H233.009V61.9907C232.905 72.8773 229.819 85.1909 223.754 98.9313L221.871 103.529C219.57 108.602 217.74 113.253 216.38 117.481C215.021 121.709 198.952 124.939 196.3 117.481C195.409 114.975 196.143 110.664 196.143 110.664L196.3 104.163C196.405 101.098 196.457 96.9759 196.457 91.7968C196.457 79.2191 193.843 67.0112 188.613 55.1733C188.613 55.1733 189.189 58.0799 190.025 61.9907C190.862 65.9014 191.28 70.7106 191.28 76.4181C191.28 83.1827 190.339 90.687 188.457 98.9313C186.574 107.81 185.424 113.993 185.005 117.481C184.587 120.969 160.646 127.078 160.689 117.481C160.695 116.167 161.16 114.151 161.16 114.151C161.474 111.826 162.101 108.655 163.043 104.639C165.971 92.8009 167.435 83.2355 167.435 75.9425C167.435 69.3894 166.86 63.3647 165.71 57.8685C164.664 52.9008 163.461 47.9331 162.101 42.9654L161.16 39.4775C159.696 33.9813 158.964 28.8022 158.964 23.9402C158.964 17.4928 160.846 11.6795 164.611 6.50044C168.376 1.32135 198.63 -4.33665 194.261 6.50044C193.899 7.39794 194.104 6.60613 193.163 8.72005C192.222 10.834 191.437 17.757 191.437 17.757C191.437 17.757 192.954 28.8022 195.987 35.6724C197.451 39.1604 199.02 42.7012 200.693 46.2949C203.098 51.3683 207.282 61.3565 207.282 61.3565C207.282 61.3565 212.197 77.7393 212.615 84.5038C213.034 91.2684 211.099 89.5772 213.4 82.2842C215.701 74.9912 216.851 66.6941 216.851 57.3929C216.851 54.0107 216.694 50.4698 216.38 46.7705C216.171 43.0711 216.067 39.2661 216.067 35.3554L216.224 29.6478C216.746 20.8751 220.145 13.1593 226.42 6.50044C232.696 -0.158392 261.244 -3.96833 256.07 6.50044C255.417 7.8217 254.031 9.67131 254.031 9.67131C252.671 11.8909 251.573 14.9032 250.736 18.7083C250.422 20.3994 250.266 22.3019 250.266 24.4159C250.266 29.2779 251.73 37.0993 254.658 47.8803C257.586 58.5556 259.051 67.6982 259.051 75.3083C259.051 82.9184 257.639 92.2725 254.815 103.371C253.56 108.55 252.619 113.253 251.991 117.481Z" fill="#90FF00"/>
<path d="M327.706 117.481C327.392 120.652 266.995 117.481 266.995 117.481L267.309 115.103C267.622 112.143 268.616 105.749 270.289 95.919L270.603 93.2237C271.544 86.5649 272.015 79.7476 272.015 72.7716C272.015 67.2755 271.178 59.5597 269.505 49.6243L267.936 41.5386C266.681 34.5627 265.949 28.7494 265.74 24.0988L265.897 19.9766C266.106 15.1146 267.204 10.6226 269.191 6.50044C271.178 2.3783 327.822 4.79262 330.059 6.50044C332.296 8.20825 332.296 9.75282 332.296 9.75282C332.296 9.75282 332.967 11.7854 332.967 15.1731C332.967 18.5608 331.626 21.9485 330.955 23.9811C330.285 26.0137 328.274 27.3688 326.608 28.0624C326.608 28.0624 289.255 13.7307 290.213 28.0624C290.275 28.9972 290.526 30.4405 290.526 30.4405C290.945 34.6683 291.781 40.0588 293.036 46.6119L293.664 49.6243C293.664 49.6243 322.529 40.9572 324.098 49.6243C325.667 58.2913 326.555 65.4786 326.765 71.1862C326.974 76.8938 296.331 67.6982 296.331 71.1862C296.331 74.6742 296.174 80.5403 296.174 80.5403C296.174 80.5403 295.442 89.6829 294.605 95.919C293.768 102.155 328.86 81.7184 331 95.919C331.674 100.387 329.745 103.74 329.118 107.334C328.49 110.928 328.02 114.31 327.706 117.481Z" fill="#90FF00"/>
<path d="M462.84 117.481C462.84 117.481 442.322 126.277 438.524 117.481C437.601 115.344 437.426 111.615 437.426 111.615C437.008 108.761 436.589 105.22 436.171 100.992L435.7 97.1873C434.55 84.6095 431.36 73.353 426.131 63.4176C420.902 53.4822 426.915 69.2837 426.915 69.2837L427.072 74.9912C427.072 82.9184 425.817 91.744 423.307 101.468L422.523 105.114C421.372 109.554 420.588 113.676 420.169 117.481C419.751 121.286 395.174 121.18 395.697 117.481C396.22 113.782 397.056 109.501 398.207 104.639C401.031 93.3294 402.547 83.764 402.756 75.9425C402.756 69.9178 402.129 63.8932 400.874 57.8685C400.142 54.1692 399.253 50.5227 398.207 46.929L396.324 39.4775C394.756 34.087 393.971 28.8551 393.971 23.7817C393.971 17.4399 395.906 11.6795 399.776 6.50044C403.645 1.32135 426.857 -2.79139 424.248 6.50044C424.052 7.1976 423.621 8.24442 423.621 8.24442C423.098 9.40707 422.732 11.521 422.523 14.5862C422.523 21.6678 426.601 31.656 434.759 44.5509C438.524 50.6812 441.609 56.0189 444.015 60.5638C446.42 65.1087 442.76 54.6977 442.76 54.6977L439.151 40.2702C437.478 33.7171 436.641 28.3794 436.641 24.2573C436.641 17.4928 438.576 11.5738 442.446 6.50044C446.315 1.42704 470.967 -2.24894 466.918 6.50044C466.299 7.83829 464.879 9.67131 464.879 9.67131C463.415 11.8909 462.265 14.9032 461.428 18.7083C461.114 20.3994 460.957 22.1962 460.957 24.0988C460.957 29.0665 462.474 37.0465 465.507 48.0388C468.33 58.0799 469.742 67.0112 469.742 74.8327C469.742 83.1827 468.383 92.6953 465.663 103.371C464.408 108.55 463.467 113.253 462.84 117.481Z" fill="#90FF00"/>
<path d="M504.874 117.481C504.142 122.871 484.189 126.349 480.558 117.481C478.467 112.374 482.911 103.529 482.911 103.529C485.003 96.0247 486.31 86.8292 486.833 75.9425C486.833 69.9178 486.31 63.8932 485.264 57.8685C484.323 52.9008 483.277 47.986 482.127 43.124L481.186 39.4775C479.826 33.7699 479.146 28.3266 479.146 23.1475C479.146 17.1229 480.767 11.5738 484.009 6.50044C487.251 1.42704 511.713 -2.46474 508.325 6.50044C507.826 7.82066 506.6 9.67131 506.6 9.67131C505.345 11.8909 504.403 14.9032 503.776 18.7083C503.567 20.2937 503.462 21.9849 503.462 23.7817C503.462 29.1722 504.822 37.2579 507.541 48.0388C509.946 57.8685 511.149 66.9584 511.149 75.3083C511.149 82.9184 509.999 91.6383 507.698 101.468C506.547 106.753 505.606 112.09 504.874 117.481Z" fill="#90FF00"/>
<path d="M548.059 120.493C539.483 120.493 532.528 117.217 527.194 110.664C523.638 105.59 521.861 99.5655 521.861 92.5896C521.861 90.687 521.965 88.7845 522.174 86.882C522.383 84.9795 522.54 83.077 522.645 81.1744C522.75 79.2719 522.802 77.3694 522.802 75.4669C522.802 67.9625 521.965 60.141 520.292 52.0024L517.311 37.2579C516.997 35.6724 516.841 34.087 516.841 32.5016C516.841 24.8915 520.187 18.4969 526.881 13.3178C530.855 10.2526 535.456 7.87448 540.686 6.18335C545.915 4.38652 550.83 3.48812 555.432 3.48812C559.825 3.48812 563.38 4.28083 566.1 5.86626C568.923 7.4517 571.276 9.56562 573.159 12.208C575.146 14.8504 577.029 18.1798 578.807 22.1963C580.689 26.107 582.206 30.1234 583.356 34.2456C584.506 38.3677 559.72 36.8879 559.197 34.2456C558.674 31.6032 557.471 29.4364 555.589 27.7453C553.811 25.9484 551.667 25.05 549.157 25.05C546.647 25.05 544.555 25.9484 542.882 27.7453C541.522 29.0136 540.843 30.7048 540.843 32.8187C541.156 35.3554 541.888 39.3718 543.039 44.868C545.758 56.8116 547.118 67.0112 547.118 75.4669C547.118 80.3289 546.752 85.0852 546.019 89.7358L545.863 91.0041C545.863 93.2237 546.542 95.1263 547.902 96.7117C549.366 98.1914 551.249 98.9313 553.549 98.9313C556.164 98.9313 558.465 98.0857 560.452 96.3946C562.544 94.5978 563.799 92.3782 564.217 89.7358C565.054 85.2966 565.472 80.4874 565.472 75.3083C565.472 70.1292 566.014 72.6343 565.315 71.1862C563.758 67.9581 558.681 73.7727 556.216 71.1862C554.042 68.9049 556.321 68.0682 555.589 63.1005C554.857 58.1328 554.072 53.6407 553.236 49.6243C552.399 45.6078 581.595 37.4663 586.65 49.6243C587.786 52.3558 588.062 57.0758 588.062 57.0758C589.213 63.629 589.788 69.6536 589.788 75.1498C589.788 82.5485 588.951 89.9472 587.278 97.3459L585.866 104.797C584.925 109.237 584.245 113.464 583.827 117.481C583.408 121.497 573.734 122.237 573.316 117.481C572.898 112.725 572.688 107.176 572.688 107.176C572.688 107.176 566.622 114.046 562.335 116.688C558.151 119.225 553.393 120.493 548.059 120.493Z" fill="#90FF00"/>
<path d="M668.265 117.481C667.638 123.294 644.75 127.044 643.949 117.481C643.783 115.491 644.577 112.408 644.577 112.408L646.616 101.468C648.917 90.37 650.067 81.7029 650.067 75.4669C650.067 75.4669 650.342 72.8012 649.911 71.1862C648.057 64.2525 631.713 66.6413 631.713 71.1862C631.713 75.7311 631.399 81.5444 630.772 88.626C630.04 93.3823 629.098 98.2971 627.948 103.371C626.797 109.818 626.065 114.521 625.752 117.481C625.438 120.44 602.237 127.044 601.436 117.481C601.269 115.491 602.063 112.408 602.063 112.408L604.103 101.468C606.299 91.0041 607.397 82.3371 607.397 75.4669L607.24 71.1862L607.083 68.9666C607.083 67.3812 606.927 65.4258 606.613 63.1005C605.881 57.8157 604.939 52.5309 603.789 47.2461L602.534 41.6971C600.861 33.9813 600.024 27.851 600.024 23.3061L600.181 19.3425C600.808 14.4805 602.273 10.1998 604.573 6.50044C606.874 2.80109 633.486 -1.89693 628.889 6.50044C628.609 7.01154 628.105 7.76879 628.105 7.76879C625.595 11.9966 624.34 16.9643 624.34 22.6719C624.34 27.7453 624.81 32.4487 625.752 36.7823L627.948 46.929C627.948 46.929 628.187 48.6169 628.575 49.6243C631.157 56.3157 646.493 56.8009 646.773 49.6243C646.847 47.7184 645.675 44.868 645.675 44.868L643.322 33.4528C642.799 30.1763 642.537 26.794 642.537 23.3061C642.537 16.9643 644.054 11.3624 647.087 6.50044C650.12 1.63844 675.054 -2.48945 671.559 6.50044C671.018 7.89427 669.677 9.82986 669.677 9.82986C668.108 13.0007 667.115 17.5456 666.696 23.4646C666.696 25.8956 666.853 28.6437 667.167 31.7089C667.585 34.6683 668.788 40.1117 670.775 48.0388L671.089 49.4657C673.285 59.084 674.383 67.6982 674.383 75.3083C674.383 82.3899 673.285 90.7399 671.089 100.358C669.834 105.96 668.893 111.668 668.265 117.481Z" fill="#90FF00"/>
<path d="M727.389 117.481C726.866 121.603 705.038 126.925 702.759 117.481C701.848 113.703 704.328 107.651 704.328 107.651L704.956 104.797C707.466 94.0164 708.721 84.451 708.721 76.101L708.564 69.4422C707.936 62.8891 706.367 54.592 703.857 44.5509C702.393 38.8433 701.4 33.3471 700.877 28.0624C700.877 28.0624 681.041 36.378 679.385 28.0624C679.131 26.7863 679.228 32.0259 679.228 24.7329C679.228 17.4399 681.006 11.3624 684.562 6.50044C688.118 1.63844 749.042 5.23209 751.705 6.50044C754.367 7.76879 753.984 9.82986 753.984 9.82986C755.396 16.1244 754.654 19.2383 752.643 23.3035C750.632 27.3688 746.841 28.0624 746.841 28.0624H725.349L726.918 37.8921L728.33 44.2338C731.572 56.9173 733.193 67.5397 733.193 76.101C733.193 82.9713 731.99 92.2196 729.585 103.846C728.644 108.814 727.912 113.359 727.389 117.481Z" fill="#90FF00"/>
</svg>
