<svg width="722" height="238" viewBox="0 0 722 238" fill="none" xmlns="http://www.w3.org/2000/svg">
<path d="M22.2562 82.52C15.9485 82.52 10.7876 80.2971 6.77362 75.8513C4.1932 72.3376 2.90298 68.2145 2.90298 63.4818C2.90298 62.1911 2.97466 60.9004 3.11802 59.6097C3.11802 59.6097 3.19752 58.6822 3.33305 58.1038C4.82809 51.724 19.0515 51.6365 20.1058 58.1038C20.3984 59.8985 19.5682 62.7289 19.5682 62.7289C19.5682 64.163 20.0342 65.3821 20.966 66.386C21.8978 67.3899 23.1522 67.8918 24.7291 67.8918C26.6644 67.8918 28.313 67.3181 29.6749 66.1708C31.3235 64.8084 32.1478 63.195 32.1478 61.3306C32.1478 57.3868 27.4171 51.5068 17.9555 43.6908L14.4074 40.5715C11.6836 38.3486 9.17486 36.0898 6.88114 33.7952C3.29721 30.425 1.07518 26.6962 0.215036 22.6089C0.0716786 21.6768 0 20.8521 0 20.1351C0 17.4819 0.680947 15.1873 2.04284 13.2512C3.47641 11.2434 5.41173 9.4866 7.8488 7.98076C10.6443 6.3315 13.7264 5.11248 17.0953 4.32371C20.4642 3.53493 23.7256 3.14055 26.8795 3.14055C30.0333 3.14055 32.4346 3.75005 34.0832 4.96907C35.8034 6.11638 37.237 7.72978 38.3839 9.80928C39.5307 11.8888 40.6059 14.3268 41.6094 17.1234C42.6846 19.9199 43.5806 22.8958 44.2974 26.0509C45.0141 29.206 30.9022 31.7216 28.9223 26.0509C28.6535 25.2809 28.4922 24.0072 28.4922 24.0072C28.1338 22.2146 27.3095 20.7446 26.0193 19.5973C24.7291 18.3782 23.2239 17.7687 21.5036 17.7687C20.2134 17.7687 19.0665 18.0914 18.063 18.7368C17.1312 19.3104 16.6653 20.2785 16.6653 21.6409L16.7728 22.5014C17.1312 24.2941 18.4214 26.2301 20.6434 28.3096C22.9371 30.3891 25.6609 32.6479 28.8148 35.0859C30.8935 36.6635 33.008 38.3486 35.1583 40.1413C39.1723 43.2964 42.6129 46.6307 45.48 50.1444C47.8454 53.0843 49.0281 56.347 49.0281 59.9323L48.9206 61.976C47.5587 68.1428 44.3332 73.0906 39.244 76.8193C34.2982 80.6198 28.6356 82.52 22.2562 82.52Z" fill="#90FF00"/>
<path d="M94.8459 80.4763C94.6308 82.6276 52.3763 88.1592 53.2365 80.4763C54.0966 72.7935 53.4515 78.8629 53.4515 78.8629C53.6665 76.8552 54.3475 72.5169 55.4943 65.8482L55.7094 64.0196C56.3545 59.5021 56.677 54.877 56.677 50.1444C56.677 46.4156 56.1036 41.181 54.9567 34.4406L53.8816 28.955C53.0214 24.2223 52.5197 20.2785 52.3763 17.1234L52.4838 14.3268C52.6272 11.0283 53.3798 7.98076 54.7417 5.18419C56.1036 2.38762 96.4586 5.18419 96.4586 5.18419L95.706 6.79759C95.2759 7.72978 94.5233 10.6698 94.5233 10.6698C94.5233 10.6698 93.8782 14.6136 93.8782 16.478C93.8782 17.6253 93.9499 18.7368 94.0932 19.8124C94.0932 19.8124 68.4928 10.0894 69.1491 19.8124C69.1919 20.4466 69.3641 21.4258 69.3641 21.4258C69.6508 24.2941 70.2243 27.9511 71.0844 32.3969C71.9446 36.8427 71.2711 33.6622 71.5145 34.4406C73.9463 42.2179 91.2978 28.5606 92.3729 34.4406C92.3729 34.4406 97.114 44.1038 94.2008 49.0688C90.0772 56.0965 73.3423 46.7024 73.3423 49.0688C73.3423 51.4351 73.3064 53.5504 73.2348 55.4148C73.0914 58.1397 72.733 61.6175 72.1596 65.8482C71.5862 70.0789 95.6371 56.2141 97.1037 65.8482C97.5652 68.8793 95.8135 73.5925 95.8135 73.5925C95.3834 76.0305 95.0609 78.3251 94.8459 80.4763Z" fill="#90FF00"/>
<path d="M120.861 82.52C114.84 82.52 109.966 80.5122 106.239 76.4966C103.658 73.4132 102.368 69.7203 102.368 65.4179C102.368 64.1989 102.029 70.3599 102.69 61.6533C103.352 52.9467 118.465 55.5654 118.281 61.6533C118.268 62.0753 118.173 62.7289 118.173 62.7289C118.173 64.163 118.639 65.3821 119.571 66.386C120.503 67.3899 121.757 67.8918 123.334 67.8918C125.126 67.8918 126.739 67.3181 128.172 66.1708C129.606 64.9518 130.502 63.446 130.86 61.6533L131.398 57.0282C131.613 55.4507 131.72 53.658 131.72 51.6502C131.72 46.0571 130.753 39.6035 128.817 32.2894L128.495 30.8911C127.42 26.7321 126.703 23.0392 126.344 19.8124C125.986 16.5856 115.08 24.5329 113.872 19.8124C113.612 18.7942 113.766 18.1743 113.765 17.1234C113.763 16.0304 113.872 14.3268 113.872 14.3268C114.159 11.0283 115.27 7.98076 117.205 5.18419C119.141 2.38762 151.759 -4.93176 146.45 5.18419C146.109 5.83477 145.483 6.79759 145.483 6.79759C144.837 7.80149 144.228 9.23563 143.655 11.1C143.153 12.8927 142.902 14.8646 142.902 17.0158C142.902 19.4538 143.225 22.3221 143.87 25.6206L145.268 31.7516C147.346 39.711 148.386 46.3798 148.386 51.7578C148.386 54.5543 148.206 57.1716 147.848 59.6097C146.558 66.0633 143.261 71.513 137.956 75.9588C132.652 80.3329 126.954 82.52 120.861 82.52Z" fill="#90FF00"/>
<path d="M198.335 80.4763C198.07 86.8787 184.63 88.1592 181.67 80.4763C178.71 72.7935 180.917 69.7203 180.917 69.7203H168.445C166.653 75.2417 167.354 71.513 165.112 80.4763C162.87 89.4397 150.082 86.7783 148.447 80.4763C147.479 76.7456 151.887 71.2262 151.887 71.2262C153.966 66.0633 156.045 59.7531 158.123 52.2956C159.199 48.28 159.987 44.1927 160.489 40.0337C160.847 37.4523 161.313 33.2933 161.887 27.5567C162.388 19.0953 164.324 11.6378 167.693 5.18419C171.061 -1.26943 180.165 3.03298 180.165 5.18419C180.165 7.33539 180.415 10.0961 180.917 13.4663C181.634 17.4102 183.892 23.9714 187.691 33.1498C189.339 37.1654 190.845 41.3244 192.207 45.6268C194.644 53.156 196.364 62.1553 197.367 72.6245C197.654 75.421 198.601 74.074 198.335 80.4763ZM179.52 55.0921C179.613 54.3313 179.197 53.156 179.197 53.156C178.48 48.7102 177.118 43.4756 175.111 37.4523C174.753 43.2605 173.929 49.1405 172.638 55.0921C171.348 61.0438 179.193 57.7605 179.52 55.0921Z" fill="#90FF00"/>
<path d="M265.131 80.4763C258.752 80.4763 242.051 83.8466 242.338 80.4763C242.624 77.1061 242.911 74.5605 243.198 72.8396C244.488 65.0235 245.133 57.0999 245.133 49.0688C244.775 43.4039 244.273 38.5279 243.628 34.4406L242.66 27.7718C241.872 22.9675 241.478 18.7726 241.478 15.1873C241.478 11.3868 241.979 8.05246 242.983 5.18419C243.986 2.31591 252.946 5.18419 264.916 5.18419C276.887 5.18419 284.055 12.2832 286.42 26.4811C286.563 27.485 286.635 28.4889 286.635 29.4928C286.635 31.8591 286.205 33.9745 285.345 35.8389C284.055 38.5637 279.646 41.2169 279.646 41.2169L279.754 41.3244C282.621 41.9698 285.166 43.7983 287.388 46.81C289.61 49.75 290.721 53.2636 290.721 57.3509C290.362 64.9518 287.459 70.7959 282.012 74.8832C277.138 78.612 271.511 80.4763 265.131 80.4763ZM265.454 34.4406C268.68 34.4406 270.471 32.6838 270.83 29.1701L270.4 26.0509C270.113 24.2582 269.325 22.7882 268.034 21.6409C266.744 20.4219 265.239 19.8124 263.519 19.8124C263.519 19.8124 257.892 16.6573 258.25 19.8124C258.609 22.9675 259.039 26.266 259.541 29.7079C259.541 29.7079 258.909 33.181 260.293 34.4406C261.784 35.7975 265.454 34.4406 265.454 34.4406ZM267.067 65.8482C268.787 65.8482 270.328 65.2745 271.69 64.1272C273.052 62.9082 273.805 61.4023 273.948 59.6097L274.27 55.1997C274.27 53.4787 273.625 52.0446 272.335 50.8973C271.117 49.6783 269.683 49.0688 268.034 49.0688C268.034 49.0688 261.798 42.6869 261.798 49.0688C261.798 55.4507 261.476 61.0438 260.831 65.8482C260.186 70.6525 267.067 65.8482 267.067 65.8482Z" fill="#90FF00"/>
<path d="M336.971 80.4763C336.756 82.6276 294.925 85.6765 295.362 80.4763C295.798 75.2762 295.577 78.8629 295.577 78.8629C295.792 76.8552 296.473 72.5169 297.619 65.8482L297.835 64.0196C298.48 59.5021 298.802 54.877 298.802 50.1444C298.802 46.4156 298.229 41.181 297.082 34.4406L296.007 28.955C295.147 24.2223 294.645 20.2785 294.501 17.1234L294.609 14.3268C294.752 11.0283 295.505 7.98076 296.867 5.18419C298.229 2.38762 337.939 3.00698 338.584 5.18419C339.229 7.36139 339.229 8.12929 339.229 8.12929C338.799 9.06148 338.584 10.6902 338.584 10.6902C338.584 10.6902 338.046 14.8646 337.831 17.0158C337.616 19.167 337.939 16.77 336.218 19.8124C334.498 22.8548 310.618 10.0894 311.274 19.8124C311.317 20.4466 311.489 21.4258 311.489 21.4258C311.776 24.2941 312.349 27.9511 313.21 32.3969C313.21 32.3969 313.396 33.6622 313.64 34.4406C316.071 42.2179 333.423 28.5606 334.498 34.4406C335.573 40.3205 336.183 45.1966 336.326 49.0688C336.469 52.9409 315.467 46.7024 315.467 49.0688C315.467 51.4351 315.432 53.5504 315.36 55.4148C315.217 58.1397 314.858 61.6175 314.285 65.8482C313.711 70.0789 337.762 56.2141 339.229 65.8482C339.69 68.8793 337.939 73.5925 337.939 73.5925C337.509 76.0305 337.186 78.3251 336.971 80.4763Z" fill="#90FF00"/>
<path d="M408.556 80.4763C408.126 83.3446 392.545 86.9542 391.891 80.4763C391.706 78.6484 392.751 75.8513 392.751 75.8513C393.038 74.2737 393.432 72.5527 393.934 70.6884C394.435 68.7523 394.937 66.7445 395.439 64.665C396.514 60.1475 397.052 55.5224 397.052 50.7897C397.052 46.0571 396.586 41.8622 395.654 38.2052C394.722 34.5481 395.546 38.2052 395.546 38.2052V42.8303C395.475 50.2161 393.36 58.5699 389.203 67.8918L387.913 71.011C386.336 74.453 385.081 77.6081 384.149 80.4763C383.218 83.3446 372.205 85.5361 370.387 80.4763C369.776 78.7761 370.28 75.8513 370.28 75.8513L370.387 71.4413C370.459 69.3618 370.495 66.5652 370.495 63.0516C370.495 54.5185 368.703 46.2363 365.119 38.2052C361.535 30.174 366.086 42.8303 366.086 42.8303C366.66 45.4834 366.947 48.7461 366.947 52.6182C366.947 57.2075 366.302 62.2987 365.011 67.8918C363.721 73.9152 362.933 78.11 362.646 80.4763C362.359 82.8427 345.951 86.987 345.981 80.4763C345.985 79.5853 346.303 78.2176 346.303 78.2176C346.518 76.64 346.948 74.4888 347.593 71.764C349.6 63.7328 350.604 57.2433 350.604 52.2956C350.604 47.8497 350.21 43.7625 349.421 40.0337C348.704 36.6635 347.88 33.2933 346.948 29.923L346.303 27.5567C345.3 23.828 344.798 20.3143 344.798 17.0158C344.798 12.6417 346.088 8.69782 348.669 5.18419C351.249 1.67055 371.984 -2.16803 368.989 5.18419C368.742 5.79308 368.237 6.69003 368.237 6.69003C367.592 8.12417 367.198 10.1678 367.054 12.821C367.054 16.2629 368.094 20.3143 370.172 24.9753C371.176 27.3416 372.251 29.7438 373.398 32.1818C375.046 35.6237 376.552 39.0298 377.913 42.4C380.064 48.28 381.282 53.5146 381.569 58.1038C381.856 62.6931 382.107 56.598 382.107 56.598C383.684 51.6502 384.472 46.0212 384.472 39.711C384.472 37.4164 384.365 35.0142 384.149 32.5045C384.006 29.9947 383.934 27.4133 383.934 24.7602L384.042 20.888C384.4 14.9363 386.73 9.70172 391.031 5.18419C395.331 0.666657 414.898 -1.91809 411.352 5.18419C410.904 6.08057 409.954 7.3354 409.954 7.3354C409.022 8.84124 408.269 10.8849 407.696 13.4663C407.481 14.6136 407.373 15.9044 407.373 17.3385C407.373 20.637 408.377 25.9433 410.384 33.2574C412.391 40.4998 413.394 46.7024 413.394 51.8653C413.394 57.0282 412.427 63.3743 410.491 70.9035C409.631 74.4171 408.986 77.6081 408.556 80.4763Z" fill="#90FF00"/>
<path d="M469.004 49.3914C468.583 52.2392 421.266 49.3914 421.266 49.3914L421.158 47.2402L420.943 42.1849C420.943 42.1849 420.764 38.4562 420.621 36.8069C420.477 35.1576 466.224 35.6596 468.359 36.8069C470.493 37.9542 468.466 38.9581 468.466 38.9581C468.61 40.4639 468.789 44.121 468.789 44.121C468.789 44.121 469.424 46.5437 469.004 49.3914Z" fill="#90FF00"/>
<path d="M508.585 80.4763C507.582 83.2012 499.214 84.1983 496.006 80.4763C493.58 77.6623 495.038 71.011 495.038 71.011C494.967 65.9199 494.106 59.6814 492.458 52.2956C491.454 48.28 490.021 44.1927 488.157 40.0337C486.365 35.803 484.466 31.644 482.459 27.5567C479.305 20.9597 477.728 15.5458 477.728 11.3151C477.728 9.16392 477.625 7.31008 478.803 5.18419C481.959 -0.509768 497.031 -1.13615 495.468 5.18419C495.341 5.69997 495.038 6.47491 495.038 6.47491C494.608 7.69393 494.321 9.59416 494.178 12.1756C494.178 14.757 494.716 17.8046 495.791 21.3182C497.153 25.4055 498.73 29.5287 500.522 33.6876C502.815 39.0657 504.536 43.9059 505.682 48.2083C506.041 44.2644 506.22 41.2527 506.22 39.1732L506.113 27.0189C506.113 24.0072 506.292 20.9955 506.65 17.9839C507.51 13.1078 509.374 8.84124 512.241 5.18419C515.108 1.52714 532.167 -0.559494 529.014 5.18419C528.48 6.15623 527.294 7.44296 527.294 7.44296C523.71 12.319 521.774 19.7407 521.488 29.7079L521.38 33.365C521.237 42.0415 519.947 50.2878 517.509 58.1038C515.933 62.7648 514.176 67.2106 512.241 71.4413C510.807 74.7398 509.589 77.7515 508.585 80.4763Z" fill="#90FF00"/>
<path d="M549.955 80.4763C549.453 84.1334 535.778 86.4924 533.289 80.4763C531.856 77.0115 534.902 71.011 534.902 71.011C536.336 65.9199 537.232 59.6814 537.59 52.2956C537.59 48.2083 537.232 44.121 536.515 40.0337C535.87 36.6635 535.153 33.3291 534.365 30.0306L533.719 27.5567C532.788 23.6845 532.322 19.9916 532.322 16.478C532.322 12.3907 533.433 8.62612 535.655 5.18419C537.877 1.74226 554.642 -0.898041 552.32 5.18419C551.978 6.07986 551.137 7.3354 551.137 7.3354C550.277 8.84124 549.632 10.8849 549.202 13.4663C549.059 14.5419 548.987 15.6892 548.987 16.9083C548.987 20.5653 549.919 26.0509 551.782 33.365C553.431 40.0337 554.255 46.2005 554.255 51.8653C554.255 57.0282 553.467 62.944 551.89 69.6128C551.102 73.1981 550.456 76.8193 549.955 80.4763Z" fill="#90FF00"/>
<path d="M607.454 80.4763C607.024 83.3446 593.392 86.4436 590.789 80.4763C590.156 79.0267 590.036 76.4966 590.036 76.4966C589.749 74.5605 589.463 72.1584 589.176 69.2901L588.853 66.7086C588.065 58.1755 585.879 50.5388 582.295 43.7983L582.832 47.778L582.94 51.6502C582.94 57.0282 582.08 63.0157 580.359 69.6128L579.822 72.0867C579.033 75.0983 578.496 77.8949 578.209 80.4763C577.922 83.0578 561.078 82.9861 561.436 80.4763C561.795 77.9666 562.368 75.0625 563.157 71.764C565.092 64.0913 566.131 57.6019 566.275 52.2956C566.275 48.2083 565.845 44.121 564.984 40.0337C564.483 37.524 563.873 35.0501 563.157 32.612L561.866 27.5567C560.791 23.8997 560.254 20.3502 560.254 16.9083C560.254 12.6058 561.58 8.69782 564.232 5.18419C566.884 1.67055 582.793 -1.11963 581.005 5.18419C580.87 5.65717 580.575 6.36735 580.575 6.36735C580.216 7.15613 579.965 8.59026 579.822 10.6698C579.822 15.4741 582.617 22.2504 588.208 30.9986C590.789 35.1576 592.903 38.7788 594.552 41.8622L593.692 37.8825L591.219 28.0945C590.072 23.6487 589.499 20.0275 589.499 17.2309C589.499 12.6417 590.825 8.62612 593.477 5.18419C596.129 1.74226 613.024 -0.751618 610.249 5.18419C609.825 6.09183 608.852 7.3354 608.852 7.3354C607.848 8.84124 607.06 10.8849 606.486 13.4663C606.271 14.6136 606.164 15.8327 606.164 17.1234C606.164 20.4936 607.203 25.9075 609.282 33.365C611.217 40.1771 612.185 46.2363 612.185 51.5426C612.185 57.2075 611.253 63.6611 609.389 70.9035C608.529 74.4171 607.884 77.6081 607.454 80.4763Z" fill="#90FF00"/>
<path d="M640.391 80.4763C640.391 80.4763 619.671 89.1366 617.598 80.4763C616.838 77.3045 618.673 72.1942 618.673 72.1942C619.748 66.9596 620.465 60.3267 620.823 52.2956C620.823 46.2005 620.071 39.1374 618.565 31.1062L617.92 27.5567C617.132 23.4694 616.737 19.4897 616.737 15.6175C616.737 11.7454 617.418 8.26758 618.78 5.18419C620.142 2.10079 641.682 5.18419 641.682 5.18419C647.488 5.18419 652.254 7.4071 655.981 11.8529C659.709 16.227 662.289 21.6768 663.723 28.2021C664.44 31.8591 665.085 35.5162 665.658 39.1732C666.16 42.3283 666.482 45.5193 666.626 48.7461C666.626 52.69 666.554 55.5941 666.411 57.4585C665.622 63.9838 662.648 69.3976 657.487 73.7001C652.469 78.2176 646.771 80.4763 640.391 80.4763ZM642.542 65.8482C644.262 65.8482 645.803 65.2745 647.165 64.1272C648.527 62.9082 649.351 61.4023 649.638 59.6097C649.925 56.0243 650.068 53.407 650.068 51.7578C650.068 46.4515 649.315 39.9978 647.81 32.3969L646.735 26.0509C646.448 24.2582 645.624 22.7882 644.262 21.6409C642.972 20.4219 641.467 19.8124 639.746 19.8124C638.026 19.8124 633.51 17.2309 633.51 19.8124C633.51 22.3938 635.159 34.3689 636.091 38.3127C637.094 43.2605 637.596 47.4912 637.596 51.0048C637.596 54.6619 637.166 59.6097 636.306 65.8482C635.446 72.0867 642.542 65.8482 642.542 65.8482Z" fill="#90FF00"/>
<path d="M694.045 82.52C687.738 82.52 682.613 80.2971 678.67 75.8513C676.305 72.6245 675.122 68.7523 675.122 64.2348C675.122 62.7289 675.23 61.1872 675.445 59.6097L675.767 55.9526C675.911 54.5902 675.982 53.1202 675.982 51.5426C675.982 50.1802 675.911 48.6744 675.767 47.0251C675.337 42.9378 674.19 37.4523 672.327 30.5684C671.897 28.9191 671.502 27.4492 671.144 26.1584C670.857 24.8677 670.714 23.6487 670.714 22.5014C670.714 17.5536 673.151 13.3229 678.025 9.80928C681.036 7.72978 684.44 6.11638 688.239 4.96907C692.11 3.75005 695.622 3.14055 698.776 3.14055C701.93 3.14055 704.367 3.75005 706.087 4.96907C707.879 6.11638 709.385 7.76563 710.603 9.91684C711.822 11.9963 713.004 14.4344 714.151 17.2309C715.37 20.0275 716.696 24.1865 718.129 29.7079L720.387 38.6354C721.247 42.2925 721.785 46.7383 722 51.9729C722 54.7695 721.785 57.315 721.355 59.6097C720.065 66.0633 716.696 71.4771 711.248 75.8513C706.159 80.2971 700.425 82.52 694.045 82.52ZM696.841 67.8918C698.561 67.8918 700.138 67.3181 701.572 66.1708C703.077 64.9518 704.009 63.446 704.367 61.6533C704.94 58.1397 705.227 54.7695 705.227 51.5426C705.227 45.9495 704.08 39.2449 701.787 31.4289C701.07 28.7757 700.461 26.3018 699.959 24.0072C699.6 22.2146 698.776 20.7446 697.486 19.5973C696.196 18.3782 694.69 17.7687 692.97 17.7687C691.25 17.7687 689.816 18.3782 688.669 19.5973C687.809 20.4577 687.379 21.5333 687.379 22.8241C687.379 24.1148 688.024 27.1265 689.315 31.8591C691.537 39.46 692.648 46.2005 692.648 52.0805C692.648 55.7375 692.361 58.9285 691.787 61.6533L691.68 62.7289C691.68 64.163 692.146 65.3821 693.078 66.386C694.009 67.3899 695.264 67.8918 696.841 67.8918Z" fill="#90FF00"/>
<path d="M158.938 220.049C158.579 222.845 143.619 226.456 142.058 220.049C141.433 217.486 143.133 213.38 143.133 213.38L143.563 211.444C145.283 204.13 146.143 197.64 146.143 191.975L146.036 187.458C145.606 183.012 144.53 177.383 142.81 170.571C141.807 166.699 141.126 162.97 140.767 159.385C140.409 155.799 127.172 165.026 126.037 159.385C125.863 158.519 125.93 157.126 125.93 157.126C125.93 152.178 127.148 148.055 129.585 144.756C132.023 141.458 174.256 143.732 175.603 144.756C176.95 145.781 174.635 146.37 174.635 146.37C172.987 149.238 172.163 152.68 172.163 156.696C172.163 156.696 172.419 158.344 172.27 159.385C171.457 165.081 159.208 153.877 157.54 159.385C156.775 161.909 158.615 166.053 158.615 166.053L159.583 170.356C161.805 178.961 162.916 186.167 162.916 191.975C162.916 196.636 162.092 202.911 160.443 210.798C159.798 214.169 159.296 217.252 158.938 220.049Z" fill="#90FF00"/>
<path d="M222.071 220.049C221.856 222.2 179.51 227.091 180.462 220.049C181.413 213.006 180.677 218.435 180.677 218.435C180.892 216.427 181.573 212.089 182.719 205.42L182.934 203.592C183.58 199.074 183.902 194.449 183.902 189.717C183.902 185.988 183.329 180.753 182.182 174.013L181.107 168.527C180.247 163.795 179.745 159.851 179.601 156.696L179.709 153.899C179.852 150.6 177.803 146.293 181.967 144.756C186.13 143.22 222.198 143.732 223.684 144.756C225.169 145.781 223.361 145.438 222.931 146.37C222.501 147.302 222.107 148.593 221.748 150.242C221.318 152.25 221.103 154.186 221.103 156.05C221.103 157.198 221.175 158.309 221.318 159.385C221.462 160.46 196.527 158.507 196.374 159.385C196.222 160.262 196.589 160.998 196.589 160.998C196.876 163.866 197.449 167.523 198.31 171.969C198.31 171.969 197.909 172.154 198.74 174.013C199.57 175.872 218.523 168.133 219.598 174.013C220.673 179.893 221.283 184.769 221.426 188.641C221.569 192.513 200.567 186.275 200.567 188.641C200.567 191.007 200.532 193.123 200.46 194.987C200.317 197.712 199.958 201.19 199.385 205.42C198.811 209.651 222.862 195.786 224.329 205.42C224.79 208.451 223.039 213.165 223.039 213.165C222.609 215.603 222.286 217.897 222.071 220.049Z" fill="#90FF00"/>
<path d="M274.945 220.049C274.73 222.056 258.585 226.744 257.635 220.049C257.373 218.202 258.28 215.316 258.28 215.316C258.854 212.734 259.427 210.117 260 207.464C260.574 204.811 260.861 202.48 260.861 200.473C260.861 197.891 260.502 195.812 259.785 194.234C258.567 191.939 256.918 190.792 254.84 190.792H251.722V194.019C251.578 197.963 250.682 203.556 249.034 210.798C248.173 214.742 247.6 217.826 247.313 220.049C247.027 222.271 230.254 222.2 230.541 220.049C230.827 217.897 231.186 215.746 231.616 213.595L232.583 209.077C234.16 202.552 234.949 197.067 234.949 192.621C234.949 189.968 234.877 187.673 234.734 185.737C234.375 182.582 233.372 177.849 231.723 171.539C230.433 167.165 229.573 162.791 229.143 158.417V157.126C229.143 152.393 230.433 148.27 233.013 144.756C235.594 141.243 256.022 144.756 256.022 144.756C259.176 144.756 261.792 145.33 263.871 146.477C265.95 147.553 267.742 149.131 269.247 151.21C272.759 155.799 275.304 161.321 276.881 167.774C277.454 170.069 277.741 172.184 277.741 174.12C277.741 179.068 272.365 186.06 272.365 186.06C272.365 186.06 278.171 194.628 278.171 200.365C278.171 202.158 277.956 204.094 277.526 206.173L276.021 213.595C275.519 215.89 275.16 218.041 274.945 220.049ZM255.915 176.164C258.925 176.164 260.574 174.586 260.861 171.431L260.646 169.818L259.678 165.623C259.248 163.902 258.352 162.432 256.99 161.213C255.628 159.994 254.087 159.385 252.367 159.385C252.367 159.385 245.521 155.584 246.023 159.385C246.525 163.185 247.349 167.093 248.496 171.109C248.496 171.109 248.186 174.792 249.679 176.164C251.472 177.812 255.915 176.164 255.915 176.164Z" fill="#90FF00"/>
<path d="M329.334 220.049C329.119 222.056 312.974 226.744 312.024 220.049C311.762 218.202 312.669 215.316 312.669 215.316C313.242 212.734 313.816 210.117 314.389 207.464C314.963 204.811 315.249 202.48 315.249 200.473C315.249 197.891 314.891 195.812 314.174 194.234C312.956 191.939 311.307 190.792 309.228 190.792C309.228 190.792 306.986 189.946 306.11 190.792C305.205 191.668 306.11 194.019 306.11 194.019C305.967 197.963 305.071 203.556 303.422 210.798C302.562 214.742 301.989 217.826 301.702 220.049C301.415 222.271 284.643 222.2 284.929 220.049C285.216 217.897 285.575 215.746 286.005 213.595L286.972 209.077C288.549 202.552 289.338 197.067 289.338 192.621C289.338 189.968 289.266 187.673 289.123 185.737C288.764 182.582 287.761 177.849 286.112 171.539C284.822 167.165 283.962 162.791 283.532 158.417V157.126C283.532 152.393 284.822 148.27 287.402 144.756C289.983 141.243 310.411 144.756 310.411 144.756C313.565 144.756 316.181 145.33 318.26 146.477C320.339 147.553 322.131 149.131 323.636 151.21C327.148 155.799 329.693 161.321 331.27 167.774C331.843 170.069 332.13 172.184 332.13 174.12C332.13 179.068 330.338 183.048 326.754 186.06C330.625 189.86 332.56 194.628 332.56 200.365C332.56 202.158 332.345 204.094 331.915 206.173L330.409 213.595C329.908 215.89 329.549 218.041 329.334 220.049ZM310.304 176.164C313.314 176.164 314.963 174.586 315.249 171.431L315.034 169.818L314.067 165.623C313.637 163.902 312.741 162.432 311.379 161.213C310.017 159.994 308.476 159.385 306.756 159.385C306.756 159.385 299.91 155.584 300.412 159.385C300.914 163.185 301.738 167.093 302.885 171.109C302.885 171.109 302.575 174.792 304.068 176.164C305.861 177.812 310.304 176.164 310.304 176.164Z" fill="#90FF00"/>
<path d="M386.649 219.618C387.007 222.056 373.781 224.906 369.984 219.618C367.528 216.198 369.231 208.862 369.231 208.862H356.759C354.895 214.599 353.784 218.184 353.426 219.618C353.067 221.052 338.436 225.91 336.761 219.618C335.772 215.908 340.094 210.368 340.094 210.368C342.244 205.205 344.359 198.859 346.437 191.33C347.512 187.386 348.301 183.335 348.803 179.176C349.161 176.594 349.627 172.435 350.2 166.699C350.702 158.237 352.637 150.78 356.006 144.326C359.375 137.873 367.977 139.479 368.478 144.326C368.53 144.828 368.478 145.617 368.478 145.617C368.478 150.063 369.589 155.369 371.811 161.536L376.112 172.507C377.761 176.451 379.23 180.538 380.52 184.769C382.957 192.226 384.678 201.225 385.681 211.766C385.968 214.563 386.29 217.18 386.649 219.618ZM367.833 194.127C367.904 193.405 367.511 192.298 367.511 192.298C366.722 187.565 363.425 176.594 363.425 176.594C363.425 176.594 362.242 188.247 360.952 194.127C359.662 200.007 367.573 196.802 367.833 194.127ZM370.521 135.936C365.648 138.75 356.114 135.936 356.114 135.936L357.297 131.957C358.085 129.375 359.232 126.328 360.737 122.814C362.314 119.229 362.222 114.376 366.436 112.919C372.081 110.966 373.424 119.802 377.725 123.244C382.026 126.686 375.456 133.087 370.521 135.936Z" fill="#90FF00"/>
<path d="M426.549 236.828C426.047 239.696 425.796 236.398 425.796 236.398C423.288 234.964 420.743 233.243 418.163 231.235C413.862 227.936 410.529 224.889 408.163 222.092C401.856 221.59 397.017 219.224 393.648 214.993C391.355 211.623 390.208 207.751 390.208 203.377C390.208 201.943 390.28 200.58 390.423 199.289C390.638 197.999 390.781 196.78 390.853 195.632C390.996 194.485 391.068 193.266 391.068 191.975C391.068 186.597 390.351 181.148 388.918 175.626L386.337 165.623C386.051 164.404 385.907 163.221 385.907 162.074C385.907 157.126 388.344 152.895 393.218 149.381C396.229 147.302 399.634 145.689 403.433 144.541C407.232 143.322 410.708 142.713 413.862 142.713C417.016 142.713 419.489 143.322 421.281 144.541C423.073 145.689 424.578 147.302 425.796 149.381C428.807 154.688 431.029 160.102 432.462 165.623L434.398 173.583C435.903 179.247 436.799 184.446 437.086 189.179C437.086 193.481 436.942 196.816 436.656 199.182C436.01 203.269 434.326 206.998 431.602 210.368C428.95 213.667 425.832 216.356 422.248 218.435C426.477 221.949 432.195 225.058 432.57 226.395C432.945 227.731 432.57 229.32 429.745 230.292C426.92 231.264 427.051 233.96 426.549 236.828ZM412.034 207.464C413.754 207.464 415.331 206.89 416.765 205.743C418.27 204.524 419.202 203.018 419.56 201.225C419.99 198.501 420.277 195.561 420.42 192.406C420.42 189.035 420.169 185.701 419.668 182.402C418.951 178.817 418.127 175.339 417.195 171.969C416.406 168.957 415.761 166.161 415.26 163.579C414.901 161.787 414.041 160.317 412.679 159.169C411.389 157.95 409.884 157.341 408.163 157.341C406.443 157.341 405.009 157.95 403.863 159.169C403.003 160.102 402.572 161.213 402.572 162.504C402.787 164.368 403.468 167.452 404.615 171.754C405.547 175.196 406.371 178.745 407.088 182.402C407.59 185.773 407.841 189.071 407.841 192.298C407.697 195.525 407.411 198.501 406.981 201.225L406.873 202.301C406.873 203.735 407.339 204.954 408.271 205.958C409.203 206.962 410.457 207.464 412.034 207.464Z" fill="#90FF00"/>
<path d="M464.495 222.092C458.187 222.092 453.027 219.869 449.013 215.423C446.217 211.838 444.819 207.536 444.819 202.516L445.465 193.158C445.465 186.92 444.497 179.893 442.562 172.077C440.913 165.623 440.089 160.424 440.089 156.48C440.089 152.178 441.235 148.27 443.529 144.756C445.823 141.243 463.084 138.824 460.302 144.756C459.99 145.422 459.334 146.37 459.334 146.37C458.689 147.445 458.116 148.915 457.614 150.78C457.184 152.644 456.969 154.616 456.969 156.696C456.969 160.137 457.793 165.444 459.442 172.614C461.305 180 462.237 186.561 462.237 192.298C462.237 195.381 462.022 198.357 461.592 201.225L461.485 202.194C461.485 203.699 461.986 204.954 462.99 205.958C463.993 206.962 465.284 207.464 466.861 207.464C468.581 207.464 470.122 206.89 471.484 205.743C472.917 204.524 473.813 203.018 474.172 201.225C474.53 199.003 474.709 196.027 474.709 192.298C474.709 186.418 473.849 179.857 472.129 172.614C470.839 167.093 470.014 162.827 469.656 159.815L469.548 156.373C469.548 152.644 470.265 149.417 471.699 146.692C471.699 146.692 472.275 145.463 472.774 144.756C476.554 139.405 492.031 138.693 489.547 144.756C489.276 145.417 488.687 146.37 488.687 146.37C488.113 147.374 487.576 148.808 487.074 150.672C486.572 152.537 486.321 154.544 486.321 156.696C486.321 159.134 486.644 161.966 487.289 165.193L488.579 171.539C489.511 175.339 490.264 179.14 490.837 182.94C491.267 186.239 491.482 189.358 491.482 192.298C491.482 194.664 491.375 196.959 491.16 199.182C490.084 205.635 486.931 211.049 481.698 215.423C476.681 219.869 470.946 222.092 464.495 222.092Z" fill="#90FF00"/>
<path d="M536.835 220.049C536.62 222.2 494.384 229.652 495.225 220.049C496.066 210.445 495.44 218.435 495.44 218.435C495.655 216.427 496.336 212.089 497.483 205.42L497.698 203.592C498.343 199.074 498.666 194.449 498.666 189.717C498.666 185.988 498.092 180.753 496.945 174.013L495.87 168.527C495.01 163.795 494.508 159.851 494.365 156.696L494.472 153.899C494.616 150.6 495.368 147.553 496.73 144.756C498.092 141.96 537.072 143.732 538.447 144.756C539.823 145.781 538.125 145.438 537.695 146.37C537.265 147.302 536.87 148.593 536.512 150.242C536.082 152.25 535.867 154.186 535.867 156.05C535.867 157.198 535.938 158.309 536.082 159.385C536.225 160.46 511.663 158.586 511.138 159.385C510.612 160.184 511.353 160.998 511.353 160.998C511.639 163.866 512.213 167.523 513.073 171.969C513.073 171.969 512.783 169.593 513.503 174.013C514.223 178.433 533.286 168.133 534.362 174.013C535.437 179.893 536.046 184.769 536.189 188.641C536.333 192.513 515.331 186.275 515.331 188.641C515.331 191.007 515.295 193.123 515.223 194.987C515.08 197.712 514.722 201.19 514.148 205.42C513.575 209.651 537.626 195.786 539.092 205.42C539.554 208.451 537.802 213.165 537.802 213.165C537.372 215.603 537.05 217.897 536.835 220.049Z" fill="#90FF00"/>
<path d="M567.47 222.092C561.163 222.092 556.038 219.869 552.095 215.423C549.73 212.197 548.547 208.324 548.547 203.807C548.547 202.301 548.655 200.759 548.87 199.182L549.192 195.525C549.336 194.162 549.407 192.692 549.407 191.115C549.407 189.752 549.336 188.247 549.192 186.597C548.762 182.51 547.615 177.024 545.752 170.141C545.322 168.491 544.927 167.021 544.569 165.731C544.282 164.44 544.139 163.221 544.139 162.074C544.139 157.126 546.576 152.895 551.45 149.381C554.461 147.302 557.865 145.689 561.664 144.541C565.535 143.322 569.047 142.713 572.201 142.713C575.355 142.713 577.792 143.322 579.512 144.541C581.304 145.689 582.81 147.338 584.028 149.489C585.247 151.569 586.429 154.007 587.576 156.803C588.795 159.6 590.121 163.759 591.554 169.28L593.812 178.208C594.672 181.865 595.21 186.31 595.425 191.545C595.425 194.342 595.21 196.887 594.78 199.182C593.49 205.635 590.121 211.049 584.673 215.423C579.584 219.869 573.85 222.092 567.47 222.092ZM570.266 207.464C571.986 207.464 573.563 206.89 574.997 205.743C576.502 204.524 577.434 203.018 577.792 201.225C578.366 197.712 578.652 194.342 578.652 191.115C578.652 185.522 577.505 178.817 575.212 171.001C574.495 168.348 573.886 165.874 573.384 163.579C573.025 161.787 572.201 160.317 570.911 159.169C569.621 157.95 568.115 157.341 566.395 157.341C564.675 157.341 563.241 157.95 562.094 159.169C561.234 160.03 560.804 161.106 560.804 162.396C560.804 163.687 561.449 166.699 562.74 171.431C564.962 179.032 566.073 185.773 566.073 191.653C566.073 195.31 565.786 198.501 565.213 201.225L565.105 202.301C565.105 203.735 565.571 204.954 566.503 205.958C567.435 206.962 568.689 207.464 570.266 207.464Z" fill="#90FF00"/>
</svg>
